<?xml version="1.0" encoding="UTF-8" standalone="no"?>
<!-- Created with Inkscape (http://www.inkscape.org/) -->

<svg
   xmlns:dc="http://purl.org/dc/elements/1.1/"
   xmlns:cc="http://creativecommons.org/ns#"
   xmlns:rdf="http://www.w3.org/1999/02/22-rdf-syntax-ns#"
   xmlns:svg="http://www.w3.org/2000/svg"
   xmlns="http://www.w3.org/2000/svg"
   xmlns:sodipodi="http://sodipodi.sourceforge.net/DTD/sodipodi-0.dtd"
   xmlns:inkscape="http://www.inkscape.org/namespaces/inkscape"
   width="210mm"
   height="297mm"
   viewBox="0 0 210 297"
   version="1.1"
   id="svg11700"
   inkscape:version="0.92.1 unknown"
   sodipodi:docname="conic_hull.svg">
  <defs
     id="defs11694" />
  <sodipodi:namedview
     id="base"
     pagecolor="#ffffff"
     bordercolor="#666666"
     borderopacity="1.0"
     inkscape:pageopacity="0.0"
     inkscape:pageshadow="2"
     inkscape:zoom="1.979899"
     inkscape:cx="627.74266"
     inkscape:cy="742.77693"
     inkscape:document-units="mm"
     inkscape:current-layer="layer1"
     showgrid="false"
     inkscape:window-width="2495"
     inkscape:window-height="1576"
     inkscape:window-x="65"
     inkscape:window-y="24"
     inkscape:window-maximized="1" />
  <metadata
     id="metadata11697">
    <rdf:RDF>
      <cc:Work
         rdf:about="">
        <dc:format>image/svg+xml</dc:format>
        <dc:type
           rdf:resource="http://purl.org/dc/dcmitype/StillImage" />
        <dc:title></dc:title>
      </cc:Work>
    </rdf:RDF>
  </metadata>
  <g
     inkscape:label="Layer 1"
     inkscape:groupmode="layer"
     id="layer1">
    <path
       d="M 149.14209,126.86999 112.13323,102.43025 V 79.386803 h 32.81892 l 4.18994,48.181337"
       style="fill:#e6e6e6;fill-opacity:1;fill-rule:evenodd;stroke:none;stroke-width:0.03527778"
       id="path8764"
       inkscape:connector-curvature="0" />
    <path
       d="m 205.00446,126.86999 -43.24668,-25.95281 -0.0466,-21.530377 h 32.98226"
       style="fill:#e6e6e6;fill-opacity:1;fill-rule:evenodd;stroke:none;stroke-width:0.03527778"
       id="path8766"
       inkscape:connector-curvature="0" />
    <path
       d="M 149.14209,126.86999 112.13323,102.43025"
       style="fill:#e6e6e6;fill-opacity:1;fill-rule:evenodd;stroke:none;stroke-width:0.03527778"
       id="path8768"
       inkscape:connector-curvature="0" />
    <path
       d="M 149.14209,126.86999 112.13323,102.43025 Z"
       style="fill:none;stroke:#000000;stroke-width:0.05818999;stroke-linecap:butt;stroke-linejoin:miter;stroke-miterlimit:10;stroke-dasharray:none;stroke-opacity:1"
       id="path8770"
       inkscape:connector-curvature="0" />
    <path
       d="M 149.14209,126.86999 144.95215,79.386803"
       style="fill:#e6e6e6;fill-opacity:1;fill-rule:evenodd;stroke:none;stroke-width:0.03527778"
       id="path8772"
       inkscape:connector-curvature="0" />
    <path
       d="M 149.14209,126.86999 144.95215,79.386803"
       style="fill:none;stroke:#000000;stroke-width:0.05818999;stroke-linecap:butt;stroke-linejoin:miter;stroke-miterlimit:10;stroke-dasharray:none;stroke-opacity:1"
       id="path8774"
       inkscape:connector-curvature="0" />
    <path
       d="m 205.00446,126.86999 -42.5951,-14.66391"
       style="fill:#e6e6e6;fill-opacity:1;fill-rule:evenodd;stroke:none;stroke-width:0.03527778"
       id="path8776"
       inkscape:connector-curvature="0" />
    <path
       d="M 205.00446,126.86999 161.75778,100.91718"
       style="fill:#e6e6e6;fill-opacity:1;fill-rule:evenodd;stroke:none;stroke-width:0.03527778"
       id="path8778"
       inkscape:connector-curvature="0" />
    <path
       d="M 205.00446,126.86999 161.75778,100.91718"
       style="fill:none;stroke:#000000;stroke-width:0.05818999;stroke-linecap:butt;stroke-linejoin:miter;stroke-miterlimit:10;stroke-dasharray:none;stroke-opacity:1"
       id="path8780"
       inkscape:connector-curvature="0" />
    <path
       d="M 205.00446,126.86999 194.69347,79.50322"
       style="fill:#e6e6e6;fill-opacity:1;fill-rule:evenodd;stroke:none;stroke-width:0.03527778"
       id="path8782"
       inkscape:connector-curvature="0" />
    <path
       d="M 205.00446,126.86999 194.69347,79.50322"
       style="fill:none;stroke:#000000;stroke-width:0.05818999;stroke-linecap:butt;stroke-linejoin:miter;stroke-miterlimit:10;stroke-dasharray:none;stroke-opacity:1"
       id="path8784"
       inkscape:connector-curvature="0" />
    <path
       d="m 132.03413,95.447364 c 0,0.192617 -0.15628,0.348898 -0.34925,0.348898 -0.19261,0 -0.34889,-0.156281 -0.34889,-0.348898 0,-0.192969 0.15628,-0.34925 0.34889,-0.34925 0.19297,0 0.34925,0.156281 0.34925,0.34925"
       style="fill:#000000;fill-opacity:1;fill-rule:evenodd;stroke:none;stroke-width:0.03527778"
       id="path8786"
       inkscape:connector-curvature="0" />
    <path
       d="m 132.03413,95.447364 c 0,0.192617 -0.15628,0.348898 -0.34925,0.348898 -0.19261,0 -0.34889,-0.156281 -0.34889,-0.348898 0,-0.192969 0.15628,-0.34925 0.34889,-0.34925 0.19297,0 0.34925,0.156281 0.34925,0.34925 z"
       style="fill:none;stroke:#000000;stroke-width:0.05818999;stroke-linecap:butt;stroke-linejoin:miter;stroke-miterlimit:10;stroke-dasharray:none;stroke-opacity:1"
       id="path8788"
       inkscape:connector-curvature="0" />
    <path
       d="m 137.27112,101.0336 c 0,0.19262 -0.15628,0.3489 -0.3489,0.3489 -0.19297,0 -0.34925,-0.15628 -0.34925,-0.3489 0,-0.19297 0.15628,-0.34925 0.34925,-0.34925 0.19262,0 0.3489,0.15628 0.3489,0.34925"
       style="fill:#000000;fill-opacity:1;fill-rule:evenodd;stroke:none;stroke-width:0.03527778"
       id="path8790"
       inkscape:connector-curvature="0" />
    <path
       d="m 137.27112,101.0336 c 0,0.19262 -0.15628,0.3489 -0.3489,0.3489 -0.19297,0 -0.34925,-0.15628 -0.34925,-0.3489 0,-0.19297 0.15628,-0.34925 0.34925,-0.34925 0.19262,0 0.3489,0.15628 0.3489,0.34925 z"
       style="fill:none;stroke:#000000;stroke-width:0.05818999;stroke-linecap:butt;stroke-linejoin:miter;stroke-miterlimit:10;stroke-dasharray:none;stroke-opacity:1"
       id="path8792"
       inkscape:connector-curvature="0" />
    <path
       d="m 123.3057,96.843659 c 0,0.192969 -0.15628,0.34925 -0.34925,0.34925 -0.19261,0 -0.34889,-0.156281 -0.34889,-0.34925 0,-0.192617 0.15628,-0.348897 0.34889,-0.348897 0.19297,0 0.34925,0.15628 0.34925,0.348897"
       style="fill:#000000;fill-opacity:1;fill-rule:evenodd;stroke:none;stroke-width:0.03527778"
       id="path8794"
       inkscape:connector-curvature="0" />
    <path
       d="m 123.3057,96.843659 c 0,0.192969 -0.15628,0.34925 -0.34925,0.34925 -0.19261,0 -0.34889,-0.156281 -0.34889,-0.34925 0,-0.192617 0.15628,-0.348897 0.34889,-0.348897 0.19297,0 0.34925,0.15628 0.34925,0.348897 z"
       style="fill:none;stroke:#000000;stroke-width:0.05818999;stroke-linecap:butt;stroke-linejoin:miter;stroke-miterlimit:10;stroke-dasharray:none;stroke-opacity:1"
       id="path8796"
       inkscape:connector-curvature="0" />
    <path
       d="m 129.24119,108.36538 c 0,0.19297 -0.15628,0.34925 -0.34925,0.34925 -0.19262,0 -0.34925,-0.15628 -0.34925,-0.34925 0,-0.19262 0.15663,-0.34889 0.34925,-0.34889 0.19297,0 0.34925,0.15627 0.34925,0.34889"
       style="fill:#000000;fill-opacity:1;fill-rule:evenodd;stroke:none;stroke-width:0.03527778"
       id="path8798"
       inkscape:connector-curvature="0" />
    <path
       d="m 129.24119,108.36538 c 0,0.19297 -0.15628,0.34925 -0.34925,0.34925 -0.19262,0 -0.34925,-0.15628 -0.34925,-0.34925 0,-0.19262 0.15663,-0.34889 0.34925,-0.34889 0.19297,0 0.34925,0.15627 0.34925,0.34889 z"
       style="fill:none;stroke:#000000;stroke-width:0.05818999;stroke-linecap:butt;stroke-linejoin:miter;stroke-miterlimit:10;stroke-dasharray:none;stroke-opacity:1"
       id="path8800"
       inkscape:connector-curvature="0" />
    <path
       d="m 128.19344,87.765981 c 0,0.192969 -0.15628,0.34925 -0.3489,0.34925 -0.19297,0 -0.34925,-0.156281 -0.34925,-0.34925 0,-0.192617 0.15628,-0.348897 0.34925,-0.348897 0.19262,0 0.3489,0.15628 0.3489,0.348897"
       style="fill:#000000;fill-opacity:1;fill-rule:evenodd;stroke:none;stroke-width:0.03527778"
       id="path8802"
       inkscape:connector-curvature="0" />
    <path
       d="m 128.19344,87.765981 c 0,0.192969 -0.15628,0.34925 -0.3489,0.34925 -0.19297,0 -0.34925,-0.156281 -0.34925,-0.34925 0,-0.192617 0.15628,-0.348897 0.34925,-0.348897 0.19262,0 0.3489,0.15628 0.3489,0.348897 z"
       style="fill:none;stroke:#000000;stroke-width:0.05818999;stroke-linecap:butt;stroke-linejoin:miter;stroke-miterlimit:10;stroke-dasharray:none;stroke-opacity:1"
       id="path8804"
       inkscape:connector-curvature="0" />
    <path
       d="m 130.28859,102.77915 c 0,0.19261 -0.15664,0.34925 -0.34925,0.34925 -0.19297,0 -0.34925,-0.15664 -0.34925,-0.34925 0,-0.19262 0.15628,-0.3489 0.34925,-0.3489 0.19261,0 0.34925,0.15628 0.34925,0.3489"
       style="fill:#000000;fill-opacity:1;fill-rule:evenodd;stroke:none;stroke-width:0.03527778"
       id="path8806"
       inkscape:connector-curvature="0" />
    <path
       d="m 130.28859,102.77915 c 0,0.19261 -0.15664,0.34925 -0.34925,0.34925 -0.19297,0 -0.34925,-0.15664 -0.34925,-0.34925 0,-0.19262 0.15628,-0.3489 0.34925,-0.3489 0.19261,0 0.34925,0.15628 0.34925,0.3489 z"
       style="fill:none;stroke:#000000;stroke-width:0.05818999;stroke-linecap:butt;stroke-linejoin:miter;stroke-miterlimit:10;stroke-dasharray:none;stroke-opacity:1"
       id="path8808"
       inkscape:connector-curvature="0" />
    <path
       d="m 139.71516,107.66724 c 0,0.19261 -0.15628,0.34925 -0.34889,0.34925 -0.19297,0 -0.34925,-0.15664 -0.34925,-0.34925 0,-0.19298 0.15628,-0.34925 0.34925,-0.34925 0.19261,0 0.34889,0.15627 0.34889,0.34925"
       style="fill:#000000;fill-opacity:1;fill-rule:evenodd;stroke:none;stroke-width:0.03527778"
       id="path8810"
       inkscape:connector-curvature="0" />
    <path
       d="m 139.71516,107.66724 c 0,0.19261 -0.15628,0.34925 -0.34889,0.34925 -0.19297,0 -0.34925,-0.15664 -0.34925,-0.34925 0,-0.19298 0.15628,-0.34925 0.34925,-0.34925 0.19261,0 0.34889,0.15627 0.34889,0.34925 z"
       style="fill:none;stroke:#000000;stroke-width:0.05818999;stroke-linecap:butt;stroke-linejoin:miter;stroke-miterlimit:10;stroke-dasharray:none;stroke-opacity:1"
       id="path8812"
       inkscape:connector-curvature="0" />
    <path
       d="m 141.46106,93.35257 c 0,0.192617 -0.15628,0.348897 -0.34925,0.348897 -0.19261,0 -0.34925,-0.15628 -0.34925,-0.348897 0,-0.19297 0.15664,-0.34925 0.34925,-0.34925 0.19297,0 0.34925,0.15628 0.34925,0.34925"
       style="fill:#000000;fill-opacity:1;fill-rule:evenodd;stroke:none;stroke-width:0.03527778"
       id="path8814"
       inkscape:connector-curvature="0" />
    <path
       d="m 141.46106,93.35257 c 0,0.192617 -0.15628,0.348897 -0.34925,0.348897 -0.19261,0 -0.34925,-0.15628 -0.34925,-0.348897 0,-0.19297 0.15664,-0.34925 0.34925,-0.34925 0.19297,0 0.34925,0.15628 0.34925,0.34925 z"
       style="fill:none;stroke:#000000;stroke-width:0.05818999;stroke-linecap:butt;stroke-linejoin:miter;stroke-miterlimit:10;stroke-dasharray:none;stroke-opacity:1"
       id="path8816"
       inkscape:connector-curvature="0" />
    <path
       d="m 124.70235,105.92134 c 0,0.19297 -0.15628,0.34925 -0.34925,0.34925 -0.19262,0 -0.34925,-0.15628 -0.34925,-0.34925 0,-0.19262 0.15663,-0.3489 0.34925,-0.3489 0.19297,0 0.34925,0.15628 0.34925,0.3489"
       style="fill:#000000;fill-opacity:1;fill-rule:evenodd;stroke:none;stroke-width:0.03527778"
       id="path8818"
       inkscape:connector-curvature="0" />
    <path
       d="m 124.70235,105.92134 c 0,0.19297 -0.15628,0.34925 -0.34925,0.34925 -0.19262,0 -0.34925,-0.15628 -0.34925,-0.34925 0,-0.19262 0.15663,-0.3489 0.34925,-0.3489 0.19297,0 0.34925,0.15628 0.34925,0.3489 z"
       style="fill:none;stroke:#000000;stroke-width:0.05818999;stroke-linecap:butt;stroke-linejoin:miter;stroke-miterlimit:10;stroke-dasharray:none;stroke-opacity:1"
       id="path8820"
       inkscape:connector-curvature="0" />
    <path
       d="m 132.03413,95.447364 c 0,0.192617 -0.15628,0.348898 -0.34925,0.348898 -0.19261,0 -0.34889,-0.156281 -0.34889,-0.348898 0,-0.192969 0.15628,-0.34925 0.34889,-0.34925 0.19297,0 0.34925,0.156281 0.34925,0.34925"
       style="fill:#000000;fill-opacity:1;fill-rule:evenodd;stroke:none;stroke-width:0.03527778"
       id="path8822"
       inkscape:connector-curvature="0" />
    <path
       d="m 132.03413,95.447364 c 0,0.192617 -0.15628,0.348898 -0.34925,0.348898 -0.19261,0 -0.34889,-0.156281 -0.34889,-0.348898 0,-0.192969 0.15628,-0.34925 0.34889,-0.34925 0.19297,0 0.34925,0.156281 0.34925,0.34925 z"
       style="fill:none;stroke:#000000;stroke-width:0.05818999;stroke-linecap:butt;stroke-linejoin:miter;stroke-miterlimit:10;stroke-dasharray:none;stroke-opacity:1"
       id="path8824"
       inkscape:connector-curvature="0" />
    <path
       d="m 137.27112,101.0336 c 0,0.19262 -0.15628,0.3489 -0.3489,0.3489 -0.19297,0 -0.34925,-0.15628 -0.34925,-0.3489 0,-0.19297 0.15628,-0.34925 0.34925,-0.34925 0.19262,0 0.3489,0.15628 0.3489,0.34925"
       style="fill:#000000;fill-opacity:1;fill-rule:evenodd;stroke:none;stroke-width:0.03527778"
       id="path8826"
       inkscape:connector-curvature="0" />
    <path
       d="m 137.27112,101.0336 c 0,0.19262 -0.15628,0.3489 -0.3489,0.3489 -0.19297,0 -0.34925,-0.15628 -0.34925,-0.3489 0,-0.19297 0.15628,-0.34925 0.34925,-0.34925 0.19262,0 0.3489,0.15628 0.3489,0.34925 z"
       style="fill:none;stroke:#000000;stroke-width:0.05818999;stroke-linecap:butt;stroke-linejoin:miter;stroke-miterlimit:10;stroke-dasharray:none;stroke-opacity:1"
       id="path8828"
       inkscape:connector-curvature="0" />
    <path
       d="m 123.3057,96.843659 c 0,0.192969 -0.15628,0.34925 -0.34925,0.34925 -0.19261,0 -0.34889,-0.156281 -0.34889,-0.34925 0,-0.192617 0.15628,-0.348897 0.34889,-0.348897 0.19297,0 0.34925,0.15628 0.34925,0.348897"
       style="fill:#000000;fill-opacity:1;fill-rule:evenodd;stroke:none;stroke-width:0.03527778"
       id="path8830"
       inkscape:connector-curvature="0" />
    <path
       d="m 123.3057,96.843659 c 0,0.192969 -0.15628,0.34925 -0.34925,0.34925 -0.19261,0 -0.34889,-0.156281 -0.34889,-0.34925 0,-0.192617 0.15628,-0.348897 0.34889,-0.348897 0.19297,0 0.34925,0.15628 0.34925,0.348897 z"
       style="fill:none;stroke:#000000;stroke-width:0.05818999;stroke-linecap:butt;stroke-linejoin:miter;stroke-miterlimit:10;stroke-dasharray:none;stroke-opacity:1"
       id="path8832"
       inkscape:connector-curvature="0" />
    <path
       d="m 129.24119,108.36538 c 0,0.19297 -0.15628,0.34925 -0.34925,0.34925 -0.19262,0 -0.34925,-0.15628 -0.34925,-0.34925 0,-0.19262 0.15663,-0.34889 0.34925,-0.34889 0.19297,0 0.34925,0.15627 0.34925,0.34889"
       style="fill:#000000;fill-opacity:1;fill-rule:evenodd;stroke:none;stroke-width:0.03527778"
       id="path8834"
       inkscape:connector-curvature="0" />
    <path
       d="m 129.24119,108.36538 c 0,0.19297 -0.15628,0.34925 -0.34925,0.34925 -0.19262,0 -0.34925,-0.15628 -0.34925,-0.34925 0,-0.19262 0.15663,-0.34889 0.34925,-0.34889 0.19297,0 0.34925,0.15627 0.34925,0.34889 z"
       style="fill:none;stroke:#000000;stroke-width:0.05818999;stroke-linecap:butt;stroke-linejoin:miter;stroke-miterlimit:10;stroke-dasharray:none;stroke-opacity:1"
       id="path8836"
       inkscape:connector-curvature="0" />
    <path
       d="m 128.19344,87.765981 c 0,0.192969 -0.15628,0.34925 -0.3489,0.34925 -0.19297,0 -0.34925,-0.156281 -0.34925,-0.34925 0,-0.192617 0.15628,-0.348897 0.34925,-0.348897 0.19262,0 0.3489,0.15628 0.3489,0.348897"
       style="fill:#000000;fill-opacity:1;fill-rule:evenodd;stroke:none;stroke-width:0.03527778"
       id="path8838"
       inkscape:connector-curvature="0" />
    <path
       d="m 128.19344,87.765981 c 0,0.192969 -0.15628,0.34925 -0.3489,0.34925 -0.19297,0 -0.34925,-0.156281 -0.34925,-0.34925 0,-0.192617 0.15628,-0.348897 0.34925,-0.348897 0.19262,0 0.3489,0.15628 0.3489,0.348897 z"
       style="fill:none;stroke:#000000;stroke-width:0.05818999;stroke-linecap:butt;stroke-linejoin:miter;stroke-miterlimit:10;stroke-dasharray:none;stroke-opacity:1"
       id="path8840"
       inkscape:connector-curvature="0" />
    <path
       d="m 130.28859,102.77915 c 0,0.19261 -0.15664,0.34925 -0.34925,0.34925 -0.19297,0 -0.34925,-0.15664 -0.34925,-0.34925 0,-0.19262 0.15628,-0.3489 0.34925,-0.3489 0.19261,0 0.34925,0.15628 0.34925,0.3489"
       style="fill:#000000;fill-opacity:1;fill-rule:evenodd;stroke:none;stroke-width:0.03527778"
       id="path8842"
       inkscape:connector-curvature="0" />
    <path
       d="m 130.28859,102.77915 c 0,0.19261 -0.15664,0.34925 -0.34925,0.34925 -0.19297,0 -0.34925,-0.15664 -0.34925,-0.34925 0,-0.19262 0.15628,-0.3489 0.34925,-0.3489 0.19261,0 0.34925,0.15628 0.34925,0.3489 z"
       style="fill:none;stroke:#000000;stroke-width:0.05818999;stroke-linecap:butt;stroke-linejoin:miter;stroke-miterlimit:10;stroke-dasharray:none;stroke-opacity:1"
       id="path8844"
       inkscape:connector-curvature="0" />
    <path
       d="m 139.71516,107.66724 c 0,0.19261 -0.15628,0.34925 -0.34889,0.34925 -0.19297,0 -0.34925,-0.15664 -0.34925,-0.34925 0,-0.19298 0.15628,-0.34925 0.34925,-0.34925 0.19261,0 0.34889,0.15627 0.34889,0.34925"
       style="fill:#000000;fill-opacity:1;fill-rule:evenodd;stroke:none;stroke-width:0.03527778"
       id="path8846"
       inkscape:connector-curvature="0" />
    <path
       d="m 139.71516,107.66724 c 0,0.19261 -0.15628,0.34925 -0.34889,0.34925 -0.19297,0 -0.34925,-0.15664 -0.34925,-0.34925 0,-0.19298 0.15628,-0.34925 0.34925,-0.34925 0.19261,0 0.34889,0.15627 0.34889,0.34925 z"
       style="fill:none;stroke:#000000;stroke-width:0.05818999;stroke-linecap:butt;stroke-linejoin:miter;stroke-miterlimit:10;stroke-dasharray:none;stroke-opacity:1"
       id="path8848"
       inkscape:connector-curvature="0" />
    <path
       d="m 141.46106,93.35257 c 0,0.192617 -0.15628,0.348897 -0.34925,0.348897 -0.19261,0 -0.34925,-0.15628 -0.34925,-0.348897 0,-0.19297 0.15664,-0.34925 0.34925,-0.34925 0.19297,0 0.34925,0.15628 0.34925,0.34925"
       style="fill:#000000;fill-opacity:1;fill-rule:evenodd;stroke:none;stroke-width:0.03527778"
       id="path8850"
       inkscape:connector-curvature="0" />
    <path
       d="m 141.46106,93.35257 c 0,0.192617 -0.15628,0.348897 -0.34925,0.348897 -0.19261,0 -0.34925,-0.15628 -0.34925,-0.348897 0,-0.19297 0.15664,-0.34925 0.34925,-0.34925 0.19297,0 0.34925,0.15628 0.34925,0.34925 z"
       style="fill:none;stroke:#000000;stroke-width:0.05818999;stroke-linecap:butt;stroke-linejoin:miter;stroke-miterlimit:10;stroke-dasharray:none;stroke-opacity:1"
       id="path8852"
       inkscape:connector-curvature="0" />
    <path
       d="m 124.70235,105.92134 c 0,0.19297 -0.15628,0.34925 -0.34925,0.34925 -0.19262,0 -0.34925,-0.15628 -0.34925,-0.34925 0,-0.19262 0.15663,-0.3489 0.34925,-0.3489 0.19297,0 0.34925,0.15628 0.34925,0.3489"
       style="fill:#000000;fill-opacity:1;fill-rule:evenodd;stroke:none;stroke-width:0.03527778"
       id="path8854"
       inkscape:connector-curvature="0" />
    <path
       d="m 124.70235,105.92134 c 0,0.19297 -0.15628,0.34925 -0.34925,0.34925 -0.19262,0 -0.34925,-0.15628 -0.34925,-0.34925 0,-0.19262 0.15663,-0.3489 0.34925,-0.3489 0.19297,0 0.34925,0.15628 0.34925,0.3489 z"
       style="fill:none;stroke:#000000;stroke-width:0.05818999;stroke-linecap:butt;stroke-linejoin:miter;stroke-miterlimit:10;stroke-dasharray:none;stroke-opacity:1"
       id="path8856"
       inkscape:connector-curvature="0" />
    <path
       d="m 125.05125,84.973039 c 0,0.192617 -0.15628,0.34925 -0.3489,0.34925 -0.19297,0 -0.34925,-0.156633 -0.34925,-0.34925 0,-0.192969 0.15628,-0.34925 0.34925,-0.34925 0.19262,0 0.3489,0.156281 0.3489,0.34925"
       style="fill:#000000;fill-opacity:1;fill-rule:evenodd;stroke:none;stroke-width:0.03527778"
       id="path8858"
       inkscape:connector-curvature="0" />
    <path
       d="m 125.05125,84.973039 c 0,0.192617 -0.15628,0.34925 -0.3489,0.34925 -0.19297,0 -0.34925,-0.156633 -0.34925,-0.34925 0,-0.192969 0.15628,-0.34925 0.34925,-0.34925 0.19262,0 0.3489,0.156281 0.3489,0.34925 z"
       style="fill:none;stroke:#000000;stroke-width:0.05818999;stroke-linecap:butt;stroke-linejoin:miter;stroke-miterlimit:10;stroke-dasharray:none;stroke-opacity:1"
       id="path8860"
       inkscape:connector-curvature="0" />
    <path
       d="m 145.9999,88.464481 c 0,0.192969 -0.15628,0.34925 -0.34925,0.34925 -0.19262,0 -0.34925,-0.156281 -0.34925,-0.34925 0,-0.192617 0.15663,-0.34925 0.34925,-0.34925 0.19297,0 0.34925,0.156633 0.34925,0.34925"
       style="fill:#000000;fill-opacity:1;fill-rule:evenodd;stroke:none;stroke-width:0.03527778"
       id="path8862"
       inkscape:connector-curvature="0" />
    <path
       d="m 145.9999,88.464481 c 0,0.192969 -0.15628,0.34925 -0.34925,0.34925 -0.19262,0 -0.34925,-0.156281 -0.34925,-0.34925 0,-0.192617 0.15663,-0.34925 0.34925,-0.34925 0.19297,0 0.34925,0.156633 0.34925,0.34925 z"
       style="fill:none;stroke:#000000;stroke-width:0.05818999;stroke-linecap:butt;stroke-linejoin:miter;stroke-miterlimit:10;stroke-dasharray:none;stroke-opacity:1"
       id="path8864"
       inkscape:connector-curvature="0" />
    <path
       d="m 142.50846,109.41278 c 0,0.19297 -0.15628,0.34925 -0.34925,0.34925 -0.19262,0 -0.34925,-0.15628 -0.34925,-0.34925 0,-0.19262 0.15663,-0.34925 0.34925,-0.34925 0.19297,0 0.34925,0.15663 0.34925,0.34925"
       style="fill:#000000;fill-opacity:1;fill-rule:evenodd;stroke:none;stroke-width:0.03527778"
       id="path8866"
       inkscape:connector-curvature="0" />
    <path
       d="m 142.50846,109.41278 c 0,0.19297 -0.15628,0.34925 -0.34925,0.34925 -0.19262,0 -0.34925,-0.15628 -0.34925,-0.34925 0,-0.19262 0.15663,-0.34925 0.34925,-0.34925 0.19297,0 0.34925,0.15663 0.34925,0.34925 z"
       style="fill:none;stroke:#000000;stroke-width:0.05818999;stroke-linecap:butt;stroke-linejoin:miter;stroke-miterlimit:10;stroke-dasharray:none;stroke-opacity:1"
       id="path8868"
       inkscape:connector-curvature="0" />
    <path
       d="m 118.06872,102.43025 c 0,0.19262 -0.15664,0.3489 -0.34925,0.3489 -0.19297,0 -0.34925,-0.15628 -0.34925,-0.3489 0,-0.19297 0.15628,-0.34925 0.34925,-0.34925 0.19261,0 0.34925,0.15628 0.34925,0.34925"
       style="fill:#000000;fill-opacity:1;fill-rule:evenodd;stroke:none;stroke-width:0.03527778"
       id="path8870"
       inkscape:connector-curvature="0" />
    <path
       d="m 118.06872,102.43025 c 0,0.19262 -0.15664,0.3489 -0.34925,0.3489 -0.19297,0 -0.34925,-0.15628 -0.34925,-0.3489 0,-0.19297 0.15628,-0.34925 0.34925,-0.34925 0.19261,0 0.34925,0.15628 0.34925,0.34925 z"
       style="fill:none;stroke:#000000;stroke-width:0.05818999;stroke-linecap:butt;stroke-linejoin:miter;stroke-miterlimit:10;stroke-dasharray:none;stroke-opacity:1"
       id="path8872"
       inkscape:connector-curvature="0" />
    <path
       d="m 125.05125,110.80943 c 0,0.19261 -0.15628,0.34925 -0.3489,0.34925 -0.19297,0 -0.34925,-0.15664 -0.34925,-0.34925 0,-0.19297 0.15628,-0.34925 0.34925,-0.34925 0.19262,0 0.3489,0.15628 0.3489,0.34925"
       style="fill:#000000;fill-opacity:1;fill-rule:evenodd;stroke:none;stroke-width:0.03527778"
       id="path8874"
       inkscape:connector-curvature="0" />
    <path
       d="m 125.05125,110.80943 c 0,0.19261 -0.15628,0.34925 -0.3489,0.34925 -0.19297,0 -0.34925,-0.15664 -0.34925,-0.34925 0,-0.19297 0.15628,-0.34925 0.34925,-0.34925 0.19262,0 0.3489,0.15628 0.3489,0.34925 z"
       style="fill:none;stroke:#000000;stroke-width:0.05818999;stroke-linecap:butt;stroke-linejoin:miter;stroke-miterlimit:10;stroke-dasharray:none;stroke-opacity:1"
       id="path8876"
       inkscape:connector-curvature="0" />
    <path
       d="m 139.01702,87.765981 c 0,0.192969 -0.15628,0.34925 -0.34925,0.34925 -0.19262,0 -0.3489,-0.156281 -0.3489,-0.34925 0,-0.192617 0.15628,-0.348897 0.3489,-0.348897 0.19297,0 0.34925,0.15628 0.34925,0.348897"
       style="fill:#000000;fill-opacity:1;fill-rule:evenodd;stroke:none;stroke-width:0.03527778"
       id="path8878"
       inkscape:connector-curvature="0" />
    <path
       d="m 139.01702,87.765981 c 0,0.192969 -0.15628,0.34925 -0.34925,0.34925 -0.19262,0 -0.3489,-0.156281 -0.3489,-0.34925 0,-0.192617 0.15628,-0.348897 0.3489,-0.348897 0.19297,0 0.34925,0.15628 0.34925,0.348897 z"
       style="fill:none;stroke:#000000;stroke-width:0.05818999;stroke-linecap:butt;stroke-linejoin:miter;stroke-miterlimit:10;stroke-dasharray:none;stroke-opacity:1"
       id="path8880"
       inkscape:connector-curvature="0" />
    <path
       d="m 149.49099,126.86999 c 0,0.19261 -0.15593,0.34925 -0.3489,0.34925 -0.19262,0 -0.34925,-0.15664 -0.34925,-0.34925 0,-0.19297 0.15663,-0.34925 0.34925,-0.34925 0.19297,0 0.3489,0.15628 0.3489,0.34925"
       style="fill:#000000;fill-opacity:1;fill-rule:evenodd;stroke:none;stroke-width:0.03527778"
       id="path8882"
       inkscape:connector-curvature="0" />
    <path
       d="m 149.49099,126.86999 c 0,0.19261 -0.15593,0.34925 -0.3489,0.34925 -0.19262,0 -0.34925,-0.15664 -0.34925,-0.34925 0,-0.19297 0.15663,-0.34925 0.34925,-0.34925 0.19297,0 0.3489,0.15628 0.3489,0.34925 z"
       style="fill:none;stroke:#000000;stroke-width:0.05818999;stroke-linecap:butt;stroke-linejoin:miter;stroke-miterlimit:10;stroke-dasharray:none;stroke-opacity:1"
       id="path8884"
       inkscape:connector-curvature="0" />
    <path
       d="m 205.35371,126.86999 c 0,0.19261 -0.15629,0.34925 -0.34925,0.34925 -0.19262,0 -0.3489,-0.15664 -0.3489,-0.34925 0,-0.19297 0.15628,-0.34925 0.3489,-0.34925 0.19296,0 0.34925,0.15628 0.34925,0.34925"
       style="fill:#000000;fill-opacity:1;fill-rule:evenodd;stroke:none;stroke-width:0.03527778"
       id="path8886"
       inkscape:connector-curvature="0" />
    <path
       d="m 205.35371,126.86999 c 0,0.19261 -0.15629,0.34925 -0.34925,0.34925 -0.19262,0 -0.3489,-0.15664 -0.3489,-0.34925 0,-0.19297 0.15628,-0.34925 0.3489,-0.34925 0.19296,0 0.34925,0.15628 0.34925,0.34925 z"
       style="fill:none;stroke:#000000;stroke-width:0.05818999;stroke-linecap:butt;stroke-linejoin:miter;stroke-miterlimit:10;stroke-dasharray:none;stroke-opacity:1"
       id="path8888"
       inkscape:connector-curvature="0" />
    <path
       d="m 125.05125,84.973039 c 0,0.192617 -0.15628,0.34925 -0.3489,0.34925 -0.19297,0 -0.34925,-0.156633 -0.34925,-0.34925 0,-0.192969 0.15628,-0.34925 0.34925,-0.34925 0.19262,0 0.3489,0.156281 0.3489,0.34925"
       style="fill:#000000;fill-opacity:1;fill-rule:evenodd;stroke:none;stroke-width:0.03527778"
       id="path8890"
       inkscape:connector-curvature="0" />
    <path
       d="m 125.05125,84.973039 c 0,0.192617 -0.15628,0.34925 -0.3489,0.34925 -0.19297,0 -0.34925,-0.156633 -0.34925,-0.34925 0,-0.192969 0.15628,-0.34925 0.34925,-0.34925 0.19262,0 0.3489,0.156281 0.3489,0.34925 z"
       style="fill:none;stroke:#000000;stroke-width:0.05818999;stroke-linecap:butt;stroke-linejoin:miter;stroke-miterlimit:10;stroke-dasharray:none;stroke-opacity:1"
       id="path8892"
       inkscape:connector-curvature="0" />
    <path
       d="m 145.9999,88.464481 c 0,0.192969 -0.15628,0.34925 -0.34925,0.34925 -0.19262,0 -0.34925,-0.156281 -0.34925,-0.34925 0,-0.192617 0.15663,-0.34925 0.34925,-0.34925 0.19297,0 0.34925,0.156633 0.34925,0.34925"
       style="fill:#000000;fill-opacity:1;fill-rule:evenodd;stroke:none;stroke-width:0.03527778"
       id="path8894"
       inkscape:connector-curvature="0" />
    <path
       d="m 145.9999,88.464481 c 0,0.192969 -0.15628,0.34925 -0.34925,0.34925 -0.19262,0 -0.34925,-0.156281 -0.34925,-0.34925 0,-0.192617 0.15663,-0.34925 0.34925,-0.34925 0.19297,0 0.34925,0.156633 0.34925,0.34925 z"
       style="fill:none;stroke:#000000;stroke-width:0.05818999;stroke-linecap:butt;stroke-linejoin:miter;stroke-miterlimit:10;stroke-dasharray:none;stroke-opacity:1"
       id="path8896"
       inkscape:connector-curvature="0" />
    <path
       d="m 142.50846,109.41278 c 0,0.19297 -0.15628,0.34925 -0.34925,0.34925 -0.19262,0 -0.34925,-0.15628 -0.34925,-0.34925 0,-0.19262 0.15663,-0.34925 0.34925,-0.34925 0.19297,0 0.34925,0.15663 0.34925,0.34925"
       style="fill:#000000;fill-opacity:1;fill-rule:evenodd;stroke:none;stroke-width:0.03527778"
       id="path8898"
       inkscape:connector-curvature="0" />
    <path
       d="m 142.50846,109.41278 c 0,0.19297 -0.15628,0.34925 -0.34925,0.34925 -0.19262,0 -0.34925,-0.15628 -0.34925,-0.34925 0,-0.19262 0.15663,-0.34925 0.34925,-0.34925 0.19297,0 0.34925,0.15663 0.34925,0.34925 z"
       style="fill:none;stroke:#000000;stroke-width:0.05818999;stroke-linecap:butt;stroke-linejoin:miter;stroke-miterlimit:10;stroke-dasharray:none;stroke-opacity:1"
       id="path8900"
       inkscape:connector-curvature="0" />
    <path
       d="m 118.06872,102.43025 c 0,0.19262 -0.15664,0.3489 -0.34925,0.3489 -0.19297,0 -0.34925,-0.15628 -0.34925,-0.3489 0,-0.19297 0.15628,-0.34925 0.34925,-0.34925 0.19261,0 0.34925,0.15628 0.34925,0.34925"
       style="fill:#000000;fill-opacity:1;fill-rule:evenodd;stroke:none;stroke-width:0.03527778"
       id="path8902"
       inkscape:connector-curvature="0" />
    <path
       d="m 118.06872,102.43025 c 0,0.19262 -0.15664,0.3489 -0.34925,0.3489 -0.19297,0 -0.34925,-0.15628 -0.34925,-0.3489 0,-0.19297 0.15628,-0.34925 0.34925,-0.34925 0.19261,0 0.34925,0.15628 0.34925,0.34925 z"
       style="fill:none;stroke:#000000;stroke-width:0.05818999;stroke-linecap:butt;stroke-linejoin:miter;stroke-miterlimit:10;stroke-dasharray:none;stroke-opacity:1"
       id="path8904"
       inkscape:connector-curvature="0" />
    <path
       d="m 125.05125,110.80943 c 0,0.19261 -0.15628,0.34925 -0.3489,0.34925 -0.19297,0 -0.34925,-0.15664 -0.34925,-0.34925 0,-0.19297 0.15628,-0.34925 0.34925,-0.34925 0.19262,0 0.3489,0.15628 0.3489,0.34925"
       style="fill:#000000;fill-opacity:1;fill-rule:evenodd;stroke:none;stroke-width:0.03527778"
       id="path8906"
       inkscape:connector-curvature="0" />
    <path
       d="m 125.05125,110.80943 c 0,0.19261 -0.15628,0.34925 -0.3489,0.34925 -0.19297,0 -0.34925,-0.15664 -0.34925,-0.34925 0,-0.19297 0.15628,-0.34925 0.34925,-0.34925 0.19262,0 0.3489,0.15628 0.3489,0.34925 z"
       style="fill:none;stroke:#000000;stroke-width:0.05818999;stroke-linecap:butt;stroke-linejoin:miter;stroke-miterlimit:10;stroke-dasharray:none;stroke-opacity:1"
       id="path8908"
       inkscape:connector-curvature="0" />
    <path
       d="m 139.01702,87.765981 c 0,0.192969 -0.15628,0.34925 -0.34925,0.34925 -0.19262,0 -0.3489,-0.156281 -0.3489,-0.34925 0,-0.192617 0.15628,-0.348897 0.3489,-0.348897 0.19297,0 0.34925,0.15628 0.34925,0.348897"
       style="fill:#000000;fill-opacity:1;fill-rule:evenodd;stroke:none;stroke-width:0.03527778"
       id="path8910"
       inkscape:connector-curvature="0" />
    <path
       d="m 139.01702,87.765981 c 0,0.192969 -0.15628,0.34925 -0.34925,0.34925 -0.19262,0 -0.3489,-0.156281 -0.3489,-0.34925 0,-0.192617 0.15628,-0.348897 0.3489,-0.348897 0.19297,0 0.34925,0.15628 0.34925,0.348897 z"
       style="fill:none;stroke:#000000;stroke-width:0.05818999;stroke-linecap:butt;stroke-linejoin:miter;stroke-miterlimit:10;stroke-dasharray:none;stroke-opacity:1"
       id="path8912"
       inkscape:connector-curvature="0" />
    <path
       d="m 174.72236,107.72156 18.62102,-4.65525 -9.59767,-11.987393 -14.43108,3.088217 -0.11642,0.93098"
       style="fill:#e6e6e6;fill-opacity:1;fill-rule:evenodd;stroke:none;stroke-width:0.03527778"
       id="path8914"
       inkscape:connector-curvature="0" />
    <path
       d="m 179.85105,96.541328 0.48083,-0.09313 0.48119,-0.05433 0.48084,-0.02328 0.48119,0.0078 0.46566,0.03881 0.44979,0.06985 0.42687,0.100894 0.41098,0.124178 0.38806,0.139347 0.37253,0.170745 0.34149,0.178505 0.32561,0.201789 0.31045,0.217311 0.2794,0.225072 0.27128,0.232481 0.25612,0.248355 0.24059,0.256117 0.22508,0.256117 0.22507,0.263525 0.2092,0.263878 0.20955,0.271639 0.20179,0.263877 0.20179,0.271642 0.20178,0.26352 0.2092,0.27164 0.20955,0.25612 0.22507,0.25612 0.22507,0.248 0.23284,0.23283 0.24835,0.23283 0.26353,0.20955 0.2794,0.20179 0.28716,0.18592 0.31009,0.17074 0.31821,0.1397 0.33372,0.12418 0.34149,0.0931 0.35666,0.0699 0.37254,0.031 h 0.36441 l 0.37254,-0.031 0.35701,-0.0776 0.35701,-0.11642 0.32562,-0.15522 0.26387,-0.17074 0.24836,-0.20144 0.23283,-0.22507 0.20955,-0.2406 0.19368,-0.25611 0.1785,-0.27164 0.17075,-0.27905 0.15522,-0.28716 0.14746,-0.28716 0.1397,-0.29492 0.13159,-0.286813 0.12417,-0.294922 0.12418,-0.287161 0.11642,-0.287161 0.10865,-0.286808 0.10866,-0.2794 0.10866,-0.2794 0.10089,-0.279048 0.10089,-0.271639 0.1009,-0.271638 0.10089,-0.263878 0.0928,-0.263878 0.0857,-0.263525 0.085,-0.263878 0.0854,-0.263878 0.0776,-0.263877 0.0699,-0.263878 0.0621,-0.271286 0.0543,-0.263878 0.0466,-0.271639 0.0388,-0.2794 0.031,-0.279047 0.008,-0.287161 v -0.287161 l -0.0233,-0.294923 -0.0388,-0.30233 -0.0621,-0.302684 -0.0776,-0.318205 -0.10865,-0.310092 -0.1397,-0.325966 -0.17075,-0.318206 -0.20179,-0.325967 -0.23248,-0.333375 -0.2794,-0.325966 -0.3182,-0.318206 -0.35666,-0.317853 -0.40358,-0.302683 -0.45014,-0.294922 -0.49636,-0.2794 -0.54333,-0.25581 -0.4886,-0.194028 -0.50447,-0.178505 -0.53517,-0.162984 -0.54327,-0.147461 -0.55845,-0.131939 -0.56656,-0.116064 -0.56621,-0.109008 -0.56656,-0.09278 -0.56621,-0.08537 -0.5588,-0.06985 -0.55069,-0.06209 -0.54327,-0.06209 -0.53517,-0.04657 -0.52775,-0.04657 -0.51188,-0.03881 -0.50448,-0.03104 -0.49636,-0.02328 -0.48118,-0.02328 -0.46567,-0.02328 -0.46531,-0.01552 -0.45015,-0.01552 -0.44238,-0.0078 -0.42651,-0.0078 -0.42686,-0.0078 h -1.65241 l -0.39582,0.0078 -0.40358,0.0078 -0.40322,0.01552 -0.39582,0.0078 -0.40358,0.02328 -0.40322,0.01552 -0.41134,0.02328 -0.41099,0.03104 -0.4191,0.03104 -0.4191,0.03881 -0.42651,0.03881 -0.44238,0.04657 -0.44203,0.05433 -0.45014,0.06209 -0.45791,0.06985 -0.46531,0.07761 -0.47343,0.08502 -0.4886,0.09349 -0.48895,0.108303 -0.4886,0.116416 -0.50447,0.131939 -0.50447,0.147461 -0.50412,0.155223 -0.50447,0.170744 -0.49636,0.186267 -0.49671,0.201789 -0.48084,0.224719 -0.46566,0.232833 -0.45015,0.256117 -0.43427,0.271639 -0.39582,0.286808 -0.36477,0.310445 -0.37218,0.372533 -0.32596,0.395464 -0.27164,0.403578 -0.21731,0.4191 -0.17816,0.418747 -0.1397,0.4191 -0.0931,0.426508 -0.0621,0.4191 -0.0233,0.411339 0.008,0.410986 0.031,0.403578 0.0621,0.395817 0.0854,0.379941 0.1009,0.380295 0.12418,0.364772 0.13934,0.364419 0.14747,0.34925 0.16298,0.34925 0.1785,0.333375 0.18627,0.333728 0.19403,0.318206 0.20143,0.325614 0.20955,0.310444 0.21731,0.310445 0.21732,0.310444 0.22507,0.310442 0.22507,0.30233 0.23248,0.30269 0.23284,0.30268 0.24059,0.31009 0.23283,0.30269 0.24836,0.31044 0.24024,0.31009 0.24835,0.31045 0.24836,0.31044 0.248,0.31821 0.24836,0.31785 0.25612,0.3182 0.25611,0.31821 0.25612,0.32597 0.26352,0.31785 0.25612,0.31821 0.26388,0.3182 0.27164,0.30268 0.26352,0.30233 0.27164,0.28717 0.27164,0.27163 0.27164,0.24836 0.2794,0.23248 0.27129,0.20179 0.2794,0.17851 0.27163,0.13194 0.35702,0.11641 0.34113,0.0466 0.33373,-0.008 0.30268,-0.0698 0.28681,-0.11641 0.24836,-0.16299 0.22507,-0.19402 0.19403,-0.23284 0.16263,-0.25576 0.13229,-0.2794 0.1083,-0.30269 0.0854,-0.31785 0.0621,-0.33373 0.0466,-0.34148 0.0233,-0.35666 0.008,-0.35701 v -0.37254 l -0.008,-0.36477 -0.0155,-0.37994 -0.0155,-0.37254 -0.008,-0.38029 -0.0155,-0.37994 v -0.3803 l 0.008,-0.38029 0.0233,-0.3877 0.0388,-0.37254 0.0621,-0.38029 0.0931,-0.372182 0.10866,-0.372533 0.14746,-0.357011 0.1785,-0.356659 0.21696,-0.341489 0.24836,-0.333727 0.29492,-0.310092 0.33373,-0.302683 0.37994,-0.271639 0.41134,-0.248356 0.45014,-0.217311 0.48084,-0.185914"
       style="fill:#e6e6e6;fill-opacity:1;fill-rule:evenodd;stroke:none;stroke-width:0.03527778"
       id="path8916"
       inkscape:connector-curvature="0" />
    <path
       d="m 179.85105,96.541328 0.48083,-0.09313 0.48119,-0.05433 0.48084,-0.02328 0.48119,0.0078 0.46566,0.03881 0.44979,0.06985 0.42687,0.100894 0.41098,0.124178 0.38806,0.139347 0.37253,0.170745 0.34149,0.178505 0.32561,0.201789 0.31045,0.217311 0.2794,0.225072 0.27128,0.232481 0.25612,0.248355 0.24059,0.256117 0.22508,0.256117 0.22507,0.263525 0.2092,0.263878 0.20955,0.271639 0.20179,0.263877 0.20179,0.271642 0.20178,0.26352 0.2092,0.27164 0.20955,0.25612 0.22507,0.25612 0.22507,0.248 0.23284,0.23283 0.24835,0.23283 0.26353,0.20955 0.2794,0.20179 0.28716,0.18592 0.31009,0.17074 0.31821,0.1397 0.33372,0.12418 0.34149,0.0931 0.35666,0.0699 0.37254,0.031 h 0.36441 l 0.37254,-0.031 0.35701,-0.0776 0.35701,-0.11642 0.32562,-0.15522 0.26387,-0.17074 0.24836,-0.20144 0.23283,-0.22507 0.20955,-0.2406 0.19368,-0.25611 0.1785,-0.27164 0.17075,-0.27905 0.15522,-0.28716 0.14746,-0.28716 0.1397,-0.29492 0.13159,-0.286813 0.12417,-0.294922 0.12418,-0.287161 0.11642,-0.287161 0.10865,-0.286808 0.10866,-0.2794 0.10866,-0.2794 0.10089,-0.279048 0.10089,-0.271639 0.1009,-0.271638 0.10089,-0.263878 0.0928,-0.263878 0.0857,-0.263525 0.085,-0.263878 0.0854,-0.263878 0.0776,-0.263877 0.0699,-0.263878 0.0621,-0.271286 0.0543,-0.263878 0.0466,-0.271639 0.0388,-0.2794 0.031,-0.279047 0.008,-0.287161 v -0.287161 l -0.0233,-0.294923 -0.0388,-0.30233 -0.0621,-0.302684 -0.0776,-0.318205 -0.10865,-0.310092 -0.1397,-0.325966 -0.17075,-0.318206 -0.20179,-0.325967 -0.23248,-0.333375 -0.2794,-0.325966 -0.3182,-0.318206 -0.35666,-0.317853 -0.40358,-0.302683 -0.45014,-0.294922 -0.49636,-0.2794 -0.54333,-0.25581 -0.4886,-0.194028 -0.50447,-0.178505 -0.53517,-0.162984 -0.54327,-0.147461 -0.55845,-0.131939 -0.56656,-0.116064 -0.56621,-0.109008 -0.56656,-0.09278 -0.56621,-0.08537 -0.5588,-0.06985 -0.55069,-0.06209 -0.54327,-0.06209 -0.53517,-0.04657 -0.52775,-0.04657 -0.51188,-0.03881 -0.50448,-0.03104 -0.49636,-0.02328 -0.48118,-0.02328 -0.46567,-0.02328 -0.46531,-0.01552 -0.45015,-0.01552 -0.44238,-0.0078 -0.42651,-0.0078 -0.42686,-0.0078 h -1.65241 l -0.39582,0.0078 -0.40358,0.0078 -0.40322,0.01552 -0.39582,0.0078 -0.40358,0.02328 -0.40322,0.01552 -0.41134,0.02328 -0.41099,0.03104 -0.4191,0.03104 -0.4191,0.03881 -0.42651,0.03881 -0.44238,0.04657 -0.44203,0.05433 -0.45014,0.06209 -0.45791,0.06985 -0.46531,0.07761 -0.47343,0.08502 -0.4886,0.09349 -0.48895,0.108303 -0.4886,0.116416 -0.50447,0.131939 -0.50447,0.147461 -0.50412,0.155223 -0.50447,0.170744 -0.49636,0.186267 -0.49671,0.201789 -0.48084,0.224719 -0.46566,0.232833 -0.45015,0.256117 -0.43427,0.271639 -0.39582,0.286808 -0.36477,0.310445 -0.37218,0.372533 -0.32596,0.395464 -0.27164,0.403578 -0.21731,0.4191 -0.17816,0.418747 -0.1397,0.4191 -0.0931,0.426508 -0.0621,0.4191 -0.0233,0.411339 0.008,0.410986 0.031,0.403578 0.0621,0.395817 0.0854,0.379941 0.1009,0.380295 0.12418,0.364772 0.13934,0.364419 0.14747,0.34925 0.16298,0.34925 0.1785,0.333375 0.18627,0.333728 0.19403,0.318206 0.20143,0.325614 0.20955,0.310444 0.21731,0.310445 0.21732,0.310444 0.22507,0.310442 0.22507,0.30233 0.23248,0.30269 0.23284,0.30268 0.24059,0.31009 0.23283,0.30269 0.24836,0.31044 0.24024,0.31009 0.24835,0.31045 0.24836,0.31044 0.248,0.31821 0.24836,0.31785 0.25612,0.3182 0.25611,0.31821 0.25612,0.32597 0.26352,0.31785 0.25612,0.31821 0.26388,0.3182 0.27164,0.30268 0.26352,0.30233 0.27164,0.28717 0.27164,0.27163 0.27164,0.24836 0.2794,0.23248 0.27129,0.20179 0.2794,0.17851 0.27163,0.13194 0.35702,0.11641 0.34113,0.0466 0.33373,-0.008 0.30268,-0.0698 0.28681,-0.11641 0.24836,-0.16299 0.22507,-0.19402 0.19403,-0.23284 0.16263,-0.25576 0.13229,-0.2794 0.1083,-0.30269 0.0854,-0.31785 0.0621,-0.33373 0.0466,-0.34148 0.0233,-0.35666 0.008,-0.35701 v -0.37254 l -0.008,-0.36477 -0.0155,-0.37994 -0.0155,-0.37254 -0.008,-0.38029 -0.0155,-0.37994 v -0.3803 l 0.008,-0.38029 0.0233,-0.3877 0.0388,-0.37254 0.0621,-0.38029 0.0931,-0.372182 0.10866,-0.372533 0.14746,-0.357011 0.1785,-0.356659 0.21696,-0.341489 0.24836,-0.333727 0.29492,-0.310092 0.33373,-0.302683 0.37994,-0.271639 0.41134,-0.248356 0.45014,-0.217311 0.48084,-0.185914 z"
       style="fill:#b3b3b3;stroke:#000000;stroke-width:0.05818999;stroke-linecap:butt;stroke-linejoin:bevel;stroke-miterlimit:10;stroke-dasharray:none;stroke-opacity:1"
       id="path8918"
       inkscape:connector-curvature="0" />
    <g
       id="g11313"
       transform="matrix(0.43541825,0,0,0.43541825,139.75815,50.219255)">
      <g
         id="content"
         transform="matrix(0.3,0,0,-0.3,-52.5,222.75)"
         xml:space="preserve"
         stroke-miterlimit="10.433"
         font-style="normal"
         font-variant="normal"
         font-weight="normal"
         font-stretch="normal"
         font-size-adjust="none"
         letter-spacing="normal"
         word-spacing="normal"
         style="font-style:normal;font-variant:normal;font-weight:normal;font-stretch:normal;letter-spacing:normal;word-spacing:normal;text-anchor:start;fill:none;fill-opacity:1;fill-rule:evenodd;stroke:#000000;stroke-linecap:butt;stroke-linejoin:miter;stroke-miterlimit:10.43299961;stroke-dasharray:none;stroke-dashoffset:0;stroke-opacity:1"><path
           d="m 493.38,440.82 v 0.02 0.02 0.01 l -0.01,0.02 v 0.02 0.02 l -0.01,0.02 v 0.02 l -0.01,0.02 -0.01,0.02 -0.01,0.02 v 0.02 l -0.02,0.02 -0.01,0.02 -0.01,0.02 -0.01,0.02 -0.02,0.02 -0.02,0.02 -0.02,0.02 -0.02,0.02 -0.02,0.01 -0.02,0.02 -0.03,0.01 -0.02,0.02 -0.03,0.01 -0.01,0.01 h -0.02 l -0.01,0.01 h -0.02 l -0.02,0.01 h -0.01 -0.02 l -0.02,0.01 h -0.02 -0.02 -0.02 -0.02 -0.02 -0.02 c -0.14,0 -0.2,-0.04 -0.75,-0.59 l -3.48,-3.84 c -0.44,0.7 -2.74,4.43 -8.27,4.43 -11.11,0 -22.33,-11.01 -22.33,-22.56 0,-8.23 5.89,-13.65 13.52,-13.65 4.33,0 8.11,1.98 10.75,4.28 4.64,4.09 5.48,8.62 5.48,8.76 0,0.5 -0.5,0.5 -0.59,0.5 -0.3,0 -0.55,-0.09 -0.66,-0.5 -0.43,-1.44 -1.59,-4.98 -5.03,-7.87 -3.43,-2.78 -6.58,-3.63 -9.15,-3.63 -4.49,0 -9.77,2.6 -9.77,10.36 0,2.85 1.05,10.91 6.02,16.74 3.04,3.54 7.73,6.03 12.15,6.03 5.1,0 8.03,-3.83 8.03,-9.61 0,-2 -0.15,-2.05 -0.15,-2.55 0,-0.5 0.54,-0.5 0.75,-0.5 0.64,0 0.64,0.11 0.89,1 z"
           id="path11310"
           inkscape:connector-curvature="0"
           style="fill:#000000;stroke-width:0" /></g>    </g>
    <g
       id="g11497"
       transform="matrix(0.43541825,0,0,0.43541825,113.05404,87.197804)">
      <g
         word-spacing="normal"
         letter-spacing="normal"
         font-size-adjust="none"
         font-stretch="normal"
         font-weight="normal"
         font-variant="normal"
         font-style="normal"
         stroke-miterlimit="10.433"
         xml:space="preserve"
         transform="matrix(0.3,0,0,-0.3,-52.5,222.75)"
         id="g11495"
         style="font-style:normal;font-variant:normal;font-weight:normal;font-stretch:normal;letter-spacing:normal;word-spacing:normal;text-anchor:start;fill:none;fill-opacity:1;fill-rule:evenodd;stroke:#000000;stroke-linecap:butt;stroke-linejoin:miter;stroke-miterlimit:10.43299961;stroke-dasharray:none;stroke-dashoffset:0;stroke-opacity:1"><path
           id="path11493"
           d="m 478.44,422.14 v 0.74 l -0.01,0.75 -0.02,0.75 -0.04,0.74 -0.04,0.75 -0.06,0.74 -0.08,0.74 -0.09,0.73 -0.12,0.73 -0.14,0.73 -0.16,0.72 -0.19,0.72 -0.21,0.72 -0.25,0.7 -0.28,0.7 -0.15,0.35 -0.16,0.34 c -2.28,4.8 -6.37,5.6 -8.47,5.6 -2.98,0 -6.62,-1.3 -8.67,-5.94 -1.59,-3.44 -1.84,-7.33 -1.84,-11.31 0,-3.74 0.2,-8.22 2.25,-12 2.14,-4.03 5.78,-5.03 8.22,-5.03 v 1.09 c -1.94,0 -4.89,1.25 -5.79,6.03 -0.54,2.98 -0.54,7.56 -0.54,10.52 0,3.18 0,6.46 0.4,9.15 0.94,5.94 4.68,6.38 5.93,6.38 1.64,0 4.93,-0.89 5.87,-5.83 0.5,-2.78 0.5,-6.58 0.5,-9.7 0,-3.75 0,-7.13 -0.55,-10.32 -0.75,-4.73 -3.59,-6.23 -5.82,-6.23 v 0 -1.09 c 2.68,0 6.46,1.04 8.67,5.78 1.59,3.43 1.84,7.31 1.84,11.25 z"
           inkscape:connector-curvature="0"
           style="fill:#000000;stroke-width:0" /></g>    </g>
    <g
       transform="matrix(0.43541825,0,0,0.43541825,169.14573,87.197804)"
       id="g12421">
      <g
         style="font-style:normal;font-variant:normal;font-weight:normal;font-stretch:normal;letter-spacing:normal;word-spacing:normal;text-anchor:start;fill:none;fill-opacity:1;fill-rule:evenodd;stroke:#000000;stroke-linecap:butt;stroke-linejoin:miter;stroke-miterlimit:10.43299961;stroke-dasharray:none;stroke-dashoffset:0;stroke-opacity:1"
         id="g12419"
         transform="matrix(0.3,0,0,-0.3,-52.5,222.75)"
         xml:space="preserve"
         stroke-miterlimit="10.433"
         font-style="normal"
         font-variant="normal"
         font-weight="normal"
         font-stretch="normal"
         font-size-adjust="none"
         letter-spacing="normal"
         word-spacing="normal"><path
           style="fill:#000000;stroke-width:0"
           inkscape:connector-curvature="0"
           d="m 478.44,422.14 v 0.74 l -0.01,0.75 -0.02,0.75 -0.04,0.74 -0.04,0.75 -0.06,0.74 -0.08,0.74 -0.09,0.73 -0.12,0.73 -0.14,0.73 -0.16,0.72 -0.19,0.72 -0.21,0.72 -0.25,0.7 -0.28,0.7 -0.15,0.35 -0.16,0.34 c -2.28,4.8 -6.37,5.6 -8.47,5.6 -2.98,0 -6.62,-1.3 -8.67,-5.94 -1.59,-3.44 -1.84,-7.33 -1.84,-11.31 0,-3.74 0.2,-8.22 2.25,-12 2.14,-4.03 5.78,-5.03 8.22,-5.03 v 1.09 c -1.94,0 -4.89,1.25 -5.79,6.03 -0.54,2.98 -0.54,7.56 -0.54,10.52 0,3.18 0,6.46 0.4,9.15 0.94,5.94 4.68,6.38 5.93,6.38 1.64,0 4.93,-0.89 5.87,-5.83 0.5,-2.78 0.5,-6.58 0.5,-9.7 0,-3.75 0,-7.13 -0.55,-10.32 -0.75,-4.73 -3.59,-6.23 -5.82,-6.23 v 0 -1.09 c 2.68,0 6.46,1.04 8.67,5.78 1.59,3.43 1.84,7.31 1.84,11.25 z"
           id="path12417" /></g>    </g>
    <g
       transform="matrix(0.43541825,0,0,0.43541825,87.313953,56.077886)"
       id="g12427">
      <g
         style="font-style:normal;font-variant:normal;font-weight:normal;font-stretch:normal;letter-spacing:normal;word-spacing:normal;text-anchor:start;fill:none;fill-opacity:1;fill-rule:evenodd;stroke:#000000;stroke-linecap:butt;stroke-linejoin:miter;stroke-miterlimit:10.43299961;stroke-dasharray:none;stroke-dashoffset:0;stroke-opacity:1"
         word-spacing="normal"
         letter-spacing="normal"
         font-size-adjust="none"
         font-stretch="normal"
         font-weight="normal"
         font-variant="normal"
         font-style="normal"
         stroke-miterlimit="10.433"
         xml:space="preserve"
         transform="matrix(0.3,0,0,-0.3,-52.5,222.75)"
         id="g12425"><path
           style="fill:#000000;stroke-width:0"
           inkscape:connector-curvature="0"
           id="path12423"
           d="m 493.38,440.82 v 0.02 0.02 0.01 l -0.01,0.02 v 0.02 0.02 l -0.01,0.02 v 0.02 l -0.01,0.02 -0.01,0.02 -0.01,0.02 v 0.02 l -0.02,0.02 -0.01,0.02 -0.01,0.02 -0.01,0.02 -0.02,0.02 -0.02,0.02 -0.02,0.02 -0.02,0.02 -0.02,0.01 -0.02,0.02 -0.03,0.01 -0.02,0.02 -0.03,0.01 -0.01,0.01 h -0.02 l -0.01,0.01 h -0.02 l -0.02,0.01 h -0.01 -0.02 l -0.02,0.01 h -0.02 -0.02 -0.02 -0.02 -0.02 -0.02 c -0.14,0 -0.2,-0.04 -0.75,-0.59 l -3.48,-3.84 c -0.44,0.7 -2.74,4.43 -8.27,4.43 -11.11,0 -22.33,-11.01 -22.33,-22.56 0,-8.23 5.89,-13.65 13.52,-13.65 4.33,0 8.11,1.98 10.75,4.28 4.64,4.09 5.48,8.62 5.48,8.76 0,0.5 -0.5,0.5 -0.59,0.5 -0.3,0 -0.55,-0.09 -0.66,-0.5 -0.43,-1.44 -1.59,-4.98 -5.03,-7.87 -3.43,-2.78 -6.58,-3.63 -9.15,-3.63 -4.49,0 -9.77,2.6 -9.77,10.36 0,2.85 1.05,10.91 6.02,16.74 3.04,3.54 7.73,6.03 12.15,6.03 5.1,0 8.03,-3.83 8.03,-9.61 0,-2 -0.15,-2.05 -0.15,-2.55 0,-0.5 0.54,-0.5 0.75,-0.5 0.64,0 0.64,0.11 0.89,1 z" /></g>    </g>
  </g>
</svg>
