<?xml version="1.0" encoding="UTF-8" standalone="no"?>
<!-- Created with Inkscape (http://www.inkscape.org/) -->

<svg
   xmlns:dc="http://purl.org/dc/elements/1.1/"
   xmlns:cc="http://creativecommons.org/ns#"
   xmlns:rdf="http://www.w3.org/1999/02/22-rdf-syntax-ns#"
   xmlns:svg="http://www.w3.org/2000/svg"
   xmlns="http://www.w3.org/2000/svg"
   xmlns:sodipodi="http://sodipodi.sourceforge.net/DTD/sodipodi-0.dtd"
   xmlns:inkscape="http://www.inkscape.org/namespaces/inkscape"
   version="1.1"
   id="svg6884"
   xml:space="preserve"
   width="816"
   height="1056"
   viewBox="0 0 816 1056"
   sodipodi:docname="convex_set_examples.svg"
   inkscape:version="0.92.1 unknown"><sodipodi:namedview
     pagecolor="#ffffff"
     bordercolor="#666666"
     borderopacity="1"
     objecttolerance="10"
     gridtolerance="10"
     guidetolerance="10"
     inkscape:pageopacity="0"
     inkscape:pageshadow="2"
     inkscape:window-width="2495"
     inkscape:window-height="1576"
     id="namedview6886"
     showgrid="false"
     inkscape:zoom="1.2642212"
     inkscape:cx="428.30546"
     inkscape:cy="699.86212"
     inkscape:window-x="65"
     inkscape:window-y="24"
     inkscape:window-maximized="1"
     inkscape:current-layer="g6894" /><metadata
     id="metadata6890"><rdf:RDF><cc:Work
         rdf:about=""><dc:format>image/svg+xml</dc:format><dc:type
           rdf:resource="http://purl.org/dc/dcmitype/StillImage" /><dc:title></dc:title></cc:Work></rdf:RDF></metadata><defs
     id="defs6888"><clipPath
       clipPathUnits="userSpaceOnUse"
       id="clipPath6910"><path
         d="m 1963.8,6681.18 v -618.69 h 2857 v 618.69 z"
         id="path6908"
         inkscape:connector-curvature="0" /></clipPath><clipPath
       clipPathUnits="userSpaceOnUse"
       id="clipPath6990"><path
         d="M 2231.73,5123.77 V 4356 h 2321 v 767.77 z"
         id="path6988"
         inkscape:connector-curvature="0" /></clipPath><clipPath
       clipPathUnits="userSpaceOnUse"
       id="clipPath6910-3"><path
         d="m 1963.8,6681.18 v -618.69 h 2857 v 618.69 z"
         id="path6908-6"
         inkscape:connector-curvature="0" /></clipPath></defs><g
     id="g6892"
     inkscape:groupmode="layer"
     inkscape:label="Convex Optimization - Boyd"
     transform="matrix(1.3333333,0,0,-1.3333333,0,1056)"><g
       id="g6894"
       transform="scale(0.1)"><path
         d="m 3573.1746,5762.9395 h 549.727 v 514.262 h -549.727 z"
         style="fill:#e6e6e6;fill-opacity:1;fill-rule:evenodd;stroke:none"
         id="path6912"
         inkscape:connector-curvature="0" /><path
         d="m 2690.0747,6032.4895 14.42,2.83 14.9,1.66 14.65,0.47 14.43,-0.47 13.95,-1.42 13.71,-2.37 12.77,-3.07 12.29,-4.02 11.59,-4.73 10.87,-5.2 10.17,-5.91 9.69,-6.38 8.9899,-6.62 8.2801,-7.1 7.8,-7.33 7.56,-7.56 6.86,-7.81 6.86,-8.04 6.38,-8.03 6.38,-8.28 6.15,-8.27 6.15,-8.04 6.15,-8.04 6.38,-8.04 6.38,-8.04 6.86,-7.57 6.86,-7.33 7.33,-7.33 7.8,-6.61 8.04,-6.39 8.75,-5.91 8.99,-5.44 9.45,-4.73 9.93,-4.02 10.4,-3.07 10.88,-2.37 11.11,-1.18 11.12,-0.23 11.35,0.71 10.87,2.36 10.88,3.31 9.93,4.73 8.04,5.2 7.56,6.15 6.62,6.86 6.39,7.32 5.91,7.8 5.2,8.28 4.97,8.51 4.73,8.75 4.25,8.75 4.26,8.75 3.78,8.98 3.78,8.75 3.55,8.75 3.55,8.75 3.31,8.51 3.31,8.28 3.07,8.51 3.07,8.27 3.08,8.04 2.84,8.04 2.83,8.04 2.84,8.04 2.6,8.04 2.37,8.04 2.36,7.8 2.13,8.04 1.89,8.04 1.66,8.27 1.41,8.28 1.18,8.28 0.48,8.51 0.24,8.74 -0.24,8.75 -0.71,8.99 -1.42,9.22 -2.13,9.22 -3.07,9.46 -3.78,9.69 -4.73,9.7 -5.68,9.93 -6.85,9.93 -8.04,9.69 -9.23,9.93 -10.64,9.46 -12.05,9.46 -13.48,8.98 -14.9,8.28 -16.31,7.8 -14.66,5.91 -15.37,5.2 -15.84,4.97 -16.55,4.25 -16.79,3.78 -17.02,3.55 -17.03,3.08 -17.02,2.83 -16.79,2.37 -16.78,2.13 -16.5501,1.89 -16.32,1.65 -15.84,1.42 -15.61,1.18 -15.36,0.95 -14.9,0.95 -14.66,0.7 -14.19,0.72 -13.95,0.47 -13.48,0.47 -13.47,0.23 -13.01,0.24 -12.76,0.24 h -12.77 l -12.29,0.24 -12.3,-0.24 h -12.29 l -12.06,-0.24 -12.06,-0.24 -12.06,-0.23 -11.82,-0.47 -12.3,-0.47 -12.06,-0.72 -12.29,-0.7 -12.3,-0.71 -12.53,-0.95 -12.77,-1.18 -13,-1.42 -13.24,-1.42 -13.24,-1.65 -13.72,-2.13 -13.94,-2.13 -13.95,-2.37 -14.43,-2.83 -14.66,-2.84 -14.6599,-3.54 -15.1301,-3.79 -14.8899,-4.02 -15.37,-4.73 -15.14,-4.96 -14.89,-5.44 -14.9,-6.15 -14.66,-6.38 -14.18,-7.1 -13.48,-7.56 -13,-8.04 -12.06,-8.75 -10.88,-9.22 -11.35,-11.35 -9.46,-11.82 -8.04,-12.3 -6.62,-12.53 -5.2,-12.77 -3.78,-12.76 -2.6,-12.77 -1.42,-12.53 -0.47,-12.53 0.47,-12.3 1.42,-12.06 2.13,-11.58 2.83,-11.59 3.55,-11.35 3.78,-10.87 4.5,-10.65 4.96,-10.63 5.2,-10.17 5.44,-9.93 5.91,-9.93 5.91,-9.69 6.38,-9.47 6.39,-9.45 6.62,-9.22 6.86,-9.22 6.85,-9.23 6.86,-9.22 7.09,-9.22 7.1,-9.22 7.33,-9.22 7.33,-9.22 7.33,-9.46 7.56,-9.46 7.33,-9.45 7.57,-9.46 7.57,-9.7 7.8,-9.69 7.8,-9.69 7.8,-9.7 7.81,-9.69 8.04,-9.46 8.04,-9.46 8.03,-8.98 8.04,-8.75 8.28,-8.27 8.27,-7.81 8.28,-7.09 8.27,-6.15 8.28,-5.44 8.28,-4.02 10.4,-3.31 9.93,-1.42 9.45,0.24 8.99,1.89 8.28,3.55 7.32,4.49 6.39,5.91 5.67,6.62 4.73,7.33 4.02,8.28 3.08,8.75 2.36,9.22 1.89,9.69 1.18,9.93 0.71,10.17 0.24,10.64 v 10.4 l -0.24,10.88 -0.23,10.87 -0.48,10.88 -0.47,11.11 -0.24,11.12 v 10.87 l 0.24,11.11 0.47,11.12 1.18,10.88 1.9,10.87 2.6,10.88 3.31,10.64 4.02,10.64 5.2,10.17 6.38,10.16 7.33,9.46 8.51,9.22 9.7,8.51 10.87,8.04 12.06,7.09 13.01,6.39 14.18,5.2"
         style="fill:#e6e6e6;fill-opacity:1;fill-rule:evenodd;stroke:none"
         id="path6914"
         inkscape:connector-curvature="0" /><path
         d="m 2690.0747,6032.4895 14.42,2.83 14.9,1.66 14.65,0.47 14.43,-0.47 13.95,-1.42 13.71,-2.37 12.77,-3.07 12.29,-4.02 11.59,-4.73 10.87,-5.2 10.17,-5.91 9.69,-6.38 8.9899,-6.62 8.2801,-7.1 7.8,-7.33 7.56,-7.56 6.86,-7.81 6.86,-8.04 6.38,-8.03 6.38,-8.28 6.15,-8.27 6.15,-8.04 6.15,-8.04 6.38,-8.04 6.38,-8.04 6.86,-7.57 6.86,-7.33 7.33,-7.33 7.8,-6.61 8.04,-6.39 8.75,-5.91 8.99,-5.44 9.45,-4.73 9.93,-4.02 10.4,-3.07 10.88,-2.37 11.11,-1.18 11.12,-0.23 11.35,0.71 10.87,2.36 10.88,3.31 9.93,4.73 8.04,5.2 7.56,6.15 6.62,6.86 6.39,7.32 5.91,7.8 5.2,8.28 4.97,8.51 4.73,8.75 4.25,8.75 4.26,8.75 3.78,8.98 3.78,8.75 3.55,8.75 3.55,8.75 3.31,8.51 3.31,8.28 3.07,8.51 3.07,8.27 3.08,8.04 2.84,8.04 2.83,8.04 2.84,8.04 2.6,8.04 2.37,8.04 2.36,7.8 2.13,8.04 1.89,8.04 1.66,8.27 1.41,8.28 1.18,8.28 0.48,8.51 0.24,8.74 -0.24,8.75 -0.71,8.99 -1.42,9.22 -2.13,9.22 -3.07,9.46 -3.78,9.69 -4.73,9.7 -5.68,9.93 -6.85,9.93 -8.04,9.69 -9.23,9.93 -10.64,9.46 -12.05,9.46 -13.48,8.98 -14.9,8.28 -16.31,7.8 -14.66,5.91 -15.37,5.2 -15.84,4.97 -16.55,4.25 -16.79,3.78 -17.02,3.55 -17.03,3.08 -17.02,2.83 -16.79,2.37 -16.78,2.13 -16.5501,1.89 -16.32,1.65 -15.84,1.42 -15.61,1.18 -15.36,0.95 -14.9,0.95 -14.66,0.7 -14.19,0.72 -13.95,0.47 -13.48,0.47 -13.47,0.23 -13.01,0.24 -12.76,0.24 h -12.77 l -12.29,0.24 -12.3,-0.24 h -12.29 l -12.06,-0.24 -12.06,-0.24 -12.06,-0.23 -11.82,-0.47 -12.3,-0.47 -12.06,-0.72 -12.29,-0.7 -12.3,-0.71 -12.53,-0.95 -12.77,-1.18 -13,-1.42 -13.24,-1.42 -13.24,-1.65 -13.72,-2.13 -13.94,-2.13 -13.95,-2.37 -14.43,-2.83 -14.66,-2.84 -14.6599,-3.54 -15.1301,-3.79 -14.8899,-4.02 -15.37,-4.73 -15.14,-4.96 -14.89,-5.44 -14.9,-6.15 -14.66,-6.38 -14.18,-7.1 -13.48,-7.56 -13,-8.04 -12.06,-8.75 -10.88,-9.22 -11.35,-11.35 -9.46,-11.82 -8.04,-12.3 -6.62,-12.53 -5.2,-12.77 -3.78,-12.76 -2.6,-12.77 -1.42,-12.53 -0.47,-12.53 0.47,-12.3 1.42,-12.06 2.13,-11.58 2.83,-11.59 3.55,-11.35 3.78,-10.87 4.5,-10.65 4.96,-10.63 5.2,-10.17 5.44,-9.93 5.91,-9.93 5.91,-9.69 6.38,-9.47 6.39,-9.45 6.62,-9.22 6.86,-9.22 6.85,-9.23 6.86,-9.22 7.09,-9.22 7.1,-9.22 7.33,-9.22 7.33,-9.22 7.33,-9.46 7.56,-9.46 7.33,-9.45 7.57,-9.46 7.57,-9.7 7.8,-9.69 7.8,-9.69 7.8,-9.7 7.81,-9.69 8.04,-9.46 8.04,-9.46 8.03,-8.98 8.04,-8.75 8.28,-8.27 8.27,-7.81 8.28,-7.09 8.27,-6.15 8.28,-5.44 8.28,-4.02 10.4,-3.31 9.93,-1.42 9.45,0.24 8.99,1.89 8.28,3.55 7.32,4.49 6.39,5.91 5.67,6.62 4.73,7.33 4.02,8.28 3.08,8.75 2.36,9.22 1.89,9.69 1.18,9.93 0.71,10.17 0.24,10.64 v 10.4 l -0.24,10.88 -0.23,10.87 -0.48,10.88 -0.47,11.11 -0.24,11.12 v 10.87 l 0.24,11.11 0.47,11.12 1.18,10.88 1.9,10.87 2.6,10.88 3.31,10.64 4.02,10.64 5.2,10.17 6.38,10.16 7.33,9.46 8.51,9.22 9.7,8.51 10.87,8.04 12.06,7.09 13.01,6.39 14.18,5.2 z"
         style="fill:none;stroke:#000000;stroke-width:3.54661989;stroke-linecap:butt;stroke-linejoin:bevel;stroke-miterlimit:10;stroke-dasharray:none;stroke-opacity:1"
         id="path6916"
         inkscape:connector-curvature="0" /><path
         d="m 3573.1746,6277.1995 v -230.53"
         style="fill:none;stroke:#000000;stroke-width:3.54661989;stroke-linecap:butt;stroke-linejoin:miter;stroke-miterlimit:10;stroke-dasharray:none;stroke-opacity:1"
         id="path6918"
         inkscape:connector-curvature="0" /><path
         d="m 3573.1746,6277.1995 h 177.33"
         style="fill:none;stroke:#000000;stroke-width:3.54661989;stroke-linecap:butt;stroke-linejoin:miter;stroke-miterlimit:10;stroke-dasharray:none;stroke-opacity:1"
         id="path6920"
         inkscape:connector-curvature="0" /><path
         d="m 3892.3747,6277.1995 h 230.53 v -265.99"
         style="fill:none;stroke:#000000;stroke-width:3.54661989;stroke-linecap:butt;stroke-linejoin:miter;stroke-miterlimit:10;stroke-dasharray:none;stroke-opacity:1"
         id="path6922"
         inkscape:connector-curvature="0" /><path
         d="m 3573.1746,5958.0095 v -195.07 h 283.73"
         style="fill:none;stroke:#000000;stroke-width:3.54661989;stroke-linecap:butt;stroke-linejoin:miter;stroke-miterlimit:10;stroke-dasharray:none;stroke-opacity:1"
         id="path6924"
         inkscape:connector-curvature="0" /><path
         d="m 4122.9047,5922.5395 v -159.6 h -159.6001"
         style="fill:none;stroke:#000000;stroke-width:3.54661989;stroke-linecap:butt;stroke-linejoin:miter;stroke-miterlimit:10;stroke-dasharray:none;stroke-opacity:1"
         id="path6926"
         inkscape:connector-curvature="0" /><rect
         style="fill:none;fill-opacity:0.56544501;stroke:none;stroke-width:7.5;stroke-miterlimit:4;stroke-dasharray:none;stroke-dashoffset:0"
         id="rect8513"
         width="3135.6992"
         height="1096.9703"
         x="1153.6017"
         y="-6491.6313"
         transform="scale(1,-1)" /><path
         d="m 3088.4747,6028.9395 c 0,-6.53 -5.3,-11.82 -11.82,-11.82 -6.5301,0 -11.83,5.29 -11.83,11.82 0,6.53 5.3,11.82 11.83,11.82 6.52,0 11.82,-5.29 11.82,-11.82"
         style="fill:#000000;fill-opacity:1;fill-rule:evenodd;stroke:none"
         id="path6928"
         inkscape:connector-curvature="0" /><path
         d="m 3088.4747,6028.9395 c 0,-6.53 -5.3,-11.82 -11.82,-11.82 -6.5301,0 -11.83,5.29 -11.83,11.82 0,6.53 5.3,11.82 11.83,11.82 6.52,0 11.82,-5.29 11.82,-11.82 z"
         style="fill:none;stroke:#000000;stroke-width:3.54661989;stroke-linecap:butt;stroke-linejoin:miter;stroke-miterlimit:10;stroke-dasharray:none;stroke-opacity:1"
         id="path6930"
         inkscape:connector-curvature="0" /><path
         d="m 2521.0147,5887.0695 c 0,-6.52 -5.3001,-11.82 -11.82,-11.82 -6.5301,0 -11.8201,5.3 -11.8201,11.82 0,6.53 5.29,11.83 11.8201,11.83 6.5199,0 11.82,-5.3 11.82,-11.83"
         style="fill:#000000;fill-opacity:1;fill-rule:evenodd;stroke:none"
         id="path6932"
         inkscape:connector-curvature="0" /><path
         d="m 2521.0147,5887.0695 c 0,-6.52 -5.3001,-11.82 -11.82,-11.82 -6.5301,0 -11.8201,5.3 -11.8201,11.82 0,6.53 5.29,11.83 11.8201,11.83 6.5199,0 11.82,-5.3 11.82,-11.83 z"
         style="fill:none;stroke:#000000;stroke-width:3.54661989;stroke-linecap:butt;stroke-linejoin:miter;stroke-miterlimit:10;stroke-dasharray:none;stroke-opacity:1"
         id="path6934"
         inkscape:connector-curvature="0" /><path
         d="m 2509.1947,5887.0695 567.46,141.87"
         style="fill:none;stroke:#000000;stroke-width:1.77330995;stroke-linecap:butt;stroke-linejoin:miter;stroke-miterlimit:10;stroke-dasharray:none;stroke-opacity:1"
         id="path6936"
         inkscape:connector-curvature="0" /><path
         d="m 1883.3346,6064.4095 -180.88,244.71 -301.46,-35.46 -120.5899,-280.19 180.8799,-244.71 301.46,35.46"
         style="fill:#e6e6e6;fill-opacity:1;fill-rule:evenodd;stroke:none"
         id="path6938"
         inkscape:connector-curvature="0" /><path
         d="m 1883.3346,6064.4095 -180.88,244.71 -301.46,-35.46 -120.5899,-280.19 180.8799,-244.71 301.46,35.46 z"
         style="fill:none;stroke:#000000;stroke-width:3.54661989;stroke-linecap:butt;stroke-linejoin:miter;stroke-miterlimit:10;stroke-dasharray:none;stroke-opacity:1"
         id="path6940"
         inkscape:connector-curvature="0" /><g
         id="g8492"
         transform="translate(71.18373,-36.239664)"><g
           transform="matrix(1.8159707,0,0,-1.8159707,744.68456,6129.1282)"
           id="g8243"><g
             style="font-style:normal;font-variant:normal;font-weight:normal;font-stretch:normal;letter-spacing:normal;word-spacing:normal;text-anchor:start;fill:none;fill-opacity:1;fill-rule:evenodd;stroke:#000000;stroke-linecap:butt;stroke-linejoin:miter;stroke-miterlimit:10.43299961;stroke-dasharray:none;stroke-dashoffset:0;stroke-opacity:1"
             word-spacing="normal"
             letter-spacing="normal"
             font-size-adjust="none"
             font-stretch="normal"
             font-weight="normal"
             font-variant="normal"
             font-style="normal"
             stroke-miterlimit="10.433"
             xml:space="preserve"
             transform="matrix(1.1657143,0,0,-1.1657143,-204,792)"
             id="content"><path
               style="fill:#000000;stroke-width:0"
               inkscape:connector-curvature="0"
               id="path8230"
               d="m 458.32,423.23 0.02,-0.96 0.07,-0.94 0.11,-0.93 0.16,-0.91 0.2,-0.89 0.24,-0.87 0.28,-0.85 0.32,-0.83 0.36,-0.81 0.39,-0.78 0.43,-0.76 0.46,-0.74 0.49,-0.7 0.52,-0.68 0.55,-0.66 0.59,-0.62 0.6,-0.59 0.64,-0.56 0.66,-0.53 0.68,-0.5 0.7,-0.46 0.73,-0.43 0.74,-0.39 0.77,-0.35 0.78,-0.32 0.79,-0.28 0.82,-0.23 0.82,-0.2 0.84,-0.15 0.84,-0.11 0.86,-0.07 0.86,-0.02 c 8.13,0 13,6.92 13,12.7 0,0.5 0,0.84 -0.64,0.84 -0.54,0 -0.54,-0.29 -0.59,-0.79 -0.41,-7.13 -5.73,-11.21 -11.17,-11.21 -3.03,0 -12.8,1.69 -12.8,16.53 0,14.91 9.72,16.6 12.75,16.6 5.44,0 9.88,-4.53 10.86,-11.82 0.11,-0.68 0.11,-0.84 0.8,-0.84 0.79,0 0.79,0.16 0.79,1.2 v 11.8 c 0,0.86 0,1.2 -0.54,1.2 -0.19,0 -0.39,0 -0.8,-0.59 l -2.48,-3.69 c -1.85,1.8 -4.39,4.28 -9.18,4.28 -9.31,0 -17.32,-7.92 -17.32,-18.09 z" /><path
               style="fill:#000000;stroke-width:0"
               inkscape:connector-curvature="0"
               id="path8232"
               d="m 514.99,416.86 -0.02,0.59 -0.04,0.59 -0.07,0.58 -0.1,0.57 -0.12,0.56 -0.15,0.55 -0.18,0.54 -0.2,0.53 -0.22,0.51 -0.24,0.5 -0.27,0.49 -0.29,0.47 -0.31,0.46 -0.32,0.44 -0.35,0.43 -0.37,0.4 -0.38,0.39 -0.4,0.37 -0.42,0.35 -0.43,0.32 -0.45,0.31 -0.46,0.28 -0.47,0.26 -0.49,0.24 -0.5,0.21 -0.51,0.18 -0.52,0.16 -0.53,0.13 -0.54,0.11 -0.55,0.07 -0.55,0.05 -0.57,0.01 -0.04,-1.09 c 2.18,0 4.32,-1.1 5.62,-3.24 1.3,-2.14 1.3,-5.03 1.3,-6.92 0,-1.8 0,-4.48 -1.1,-6.67 -1.09,-2.25 -3.28,-3.69 -5.78,-3.69 v 0 c -2.14,0 -4.33,1.05 -5.67,3.33 -1.25,2.2 -1.25,5.23 -1.25,7.03 0,1.94 0,4.63 1.19,6.83 1.36,2.28 3.69,3.33 5.69,3.33 l 0.04,1.09 c -6.22,0 -11.06,-5.42 -11.06,-11.65 0,-6.43 5.19,-11.21 11.02,-11.21 6.03,0 11.06,4.88 11.06,11.21 z" /><path
               style="fill:#000000;stroke-width:0"
               inkscape:connector-curvature="0"
               id="path8234"
               d="m 521.96,423.34 v -13.36 c 0,-2.23 -0.55,-2.23 -3.89,-2.23 v -1.55 c 1.75,0.05 4.28,0.16 5.63,0.16 1.29,0 3.89,-0.11 5.57,-0.16 v 1.55 c -3.32,0 -3.87,0 -3.87,2.23 v 9.17 c 0,5.19 3.53,7.97 6.72,7.97 3.14,0 3.68,-2.69 3.68,-5.53 v -11.61 c 0,-2.23 -0.54,-2.23 -3.89,-2.23 v -1.55 c 1.75,0.05 4.3,0.16 5.64,0.16 1.3,0 3.88,-0.11 5.58,-0.16 v 1.55 c -2.59,0 -3.84,0 -3.89,1.5 v 9.51 c 0,4.28 0,5.83 -1.54,7.61 -0.69,0.86 -2.35,1.84 -5.22,1.84 -3.64,0 -5.99,-2.14 -7.38,-5.21 v 5.21 l -7.03,-0.54 v -1.55 c 3.48,0 3.89,-0.34 3.89,-2.78 z" /><path
               style="fill:#000000;stroke-width:0"
               inkscape:connector-curvature="0"
               id="path8236"
               d="m 563.47,422.79 0.05,0.11 0.04,0.12 0.05,0.12 0.06,0.12 0.05,0.13 0.06,0.13 0.07,0.13 0.07,0.14 0.07,0.13 0.09,0.14 0.08,0.14 0.1,0.14 0.1,0.13 0.1,0.14 0.12,0.13 0.12,0.13 0.14,0.12 0.14,0.13 0.14,0.11 0.16,0.12 0.17,0.11 0.18,0.1 0.19,0.09 0.2,0.09 0.21,0.08 0.23,0.07 0.23,0.07 0.25,0.05 0.26,0.05 0.14,0.01 0.14,0.02 0.14,0.01 0.14,0.01 0.15,0.01 h 0.16 v 1.55 c -1.16,-0.1 -2.6,-0.14 -3.74,-0.14 -1.2,0 -3.5,0.09 -4.34,0.14 v -1.55 c 1.84,-0.05 2.39,-1.19 2.39,-2.14 0,-0.44 -0.1,-0.64 -0.3,-1.19 l -5.08,-12.7 -5.57,13.89 c -0.3,0.66 -0.3,0.75 -0.3,0.86 0,1.28 1.94,1.28 2.83,1.28 v 1.55 c -1.49,-0.05 -4.28,-0.14 -5.43,-0.14 -1.34,0 -3.34,0.04 -4.82,0.14 v -1.55 c 3.12,0 3.32,-0.3 3.98,-1.84 l 7.17,-17.67 c 0.3,-0.71 0.39,-0.96 1.05,-0.96 0.64,0 0.84,0.46 1.05,0.96 z" /><path
               style="fill:#000000;stroke-width:0"
               inkscape:connector-curvature="0"
               id="path8238"
               d="m 573.12,417.71 0.05,1.05 c 0.3,7.42 4.49,8.66 6.19,8.66 5.12,0 5.62,-6.72 5.62,-8.66 h -11.81 l -0.05,-1.05 h 13.91 c 1.09,0 1.24,0 1.24,1.05 0,4.92 -2.69,9.75 -8.91,9.75 -5.78,0 -10.38,-5.12 -10.38,-11.36 0,-6.67 5.24,-11.5 10.97,-11.5 6.08,0 8.32,5.53 8.32,6.47 0,0.5 -0.39,0.61 -0.65,0.61 -0.45,0 -0.54,-0.3 -0.65,-0.7 -1.74,-5.13 -6.22,-5.13 -6.72,-5.13 -2.5,0 -4.48,1.49 -5.63,3.33 -1.5,2.39 -1.5,5.69 -1.5,7.48 z" /><path
               style="fill:#000000;stroke-width:0"
               inkscape:connector-curvature="0"
               id="path8240"
               d="m 603.97,417.9 0.28,0.36 0.3,0.37 0.3,0.38 0.3,0.39 0.61,0.78 0.31,0.38 0.31,0.39 0.3,0.37 0.29,0.37 0.29,0.35 0.28,0.34 0.14,0.16 0.13,0.16 0.13,0.16 0.13,0.15 0.13,0.14 0.12,0.14 0.11,0.13 0.12,0.12 c 1.54,1.78 3.59,2.53 5.93,2.58 v 1.55 c -1.29,-0.1 -2.79,-0.14 -4.09,-0.14 -1.48,0 -4.12,0.09 -4.78,0.14 v -1.55 c 1.05,-0.09 1.45,-0.73 1.45,-1.53 0,-0.8 -0.5,-1.45 -0.75,-1.75 l -3.09,-3.89 -3.88,5.03 c -0.45,0.5 -0.45,0.61 -0.45,0.91 0,0.75 0.75,1.18 1.73,1.23 v 1.55 c -1.28,-0.05 -4.57,-0.14 -5.37,-0.14 -1.05,0 -3.39,0.04 -4.73,0.14 v -1.55 c 3.48,0 3.54,-0.05 5.87,-3.03 l 4.94,-6.42 -4.69,-5.94 c -2.39,-2.89 -5.33,-2.98 -6.37,-2.98 v -1.55 c 1.29,0.09 2.84,0.16 4.14,0.16 1.43,0 3.53,-0.11 4.73,-0.16 v 1.55 c -1.09,0.14 -1.45,0.79 -1.45,1.54 0,1.1 1.45,2.74 4.48,6.33 l 3.8,-4.98 c 0.39,-0.55 1.05,-1.35 1.05,-1.64 0,-0.46 -0.46,-1.21 -1.8,-1.25 v -1.55 c 1.48,0.05 4.28,0.16 5.37,0.16 1.35,0 3.3,-0.07 4.79,-0.16 v 1.55 c -2.69,0 -3.58,0.09 -4.74,1.54 z" /></g></g></g><g
         id="g8482"
         transform="translate(-12.347956,-10.488116)"><g
           transform="matrix(1.8159707,0,0,-1.8159707,1875.2143,6103.9588)"
           id="g8337"><g
             style="font-style:normal;font-variant:normal;font-weight:normal;font-stretch:normal;letter-spacing:normal;word-spacing:normal;text-anchor:start;fill:none;fill-opacity:1;fill-rule:evenodd;stroke:#000000;stroke-linecap:butt;stroke-linejoin:miter;stroke-miterlimit:10.43299961;stroke-dasharray:none;stroke-dashoffset:0;stroke-opacity:1"
             id="g8335"
             transform="matrix(1.1657143,0,0,-1.1657143,-204,792)"
             xml:space="preserve"
             stroke-miterlimit="10.433"
             font-style="normal"
             font-variant="normal"
             font-weight="normal"
             font-stretch="normal"
             font-size-adjust="none"
             letter-spacing="normal"
             word-spacing="normal"><path
               style="fill:#000000;stroke-width:0"
               inkscape:connector-curvature="0"
               d="m 467.08,439.57 -0.04,0.06 -0.04,0.05 -0.04,0.05 -0.03,0.05 -0.04,0.04 -0.03,0.04 -0.03,0.04 -0.03,0.03 -0.03,0.04 -0.03,0.03 -0.03,0.02 -0.04,0.03 -0.03,0.02 -0.03,0.02 -0.03,0.02 -0.04,0.02 -0.03,0.02 -0.04,0.01 -0.04,0.01 -0.04,0.01 -0.05,0.01 -0.04,0.01 -0.05,0.01 h -0.06 l -0.05,0.01 h -0.06 -0.07 l -0.06,0.01 h -0.08 -0.03 -0.04 -0.04 -0.04 -0.05 -0.04 -8.47 v -1.55 h 1.45 c 0.75,0 1.74,-0.04 2.49,-0.09 1.14,-0.16 1.2,-0.2 1.2,-1.16 v -26 c 0,-1.34 0,-3.68 -5.14,-3.68 v -1.55 c 1.75,0.05 4.19,0.16 5.83,0.16 1.65,0 4.09,-0.11 5.83,-0.16 v 1.55 c -5.13,0 -5.13,2.34 -5.13,3.68 v 25.91 c 0.25,-0.25 0.3,-0.3 0.5,-0.59 l 20.33,-29.91 c 0.44,-0.59 0.5,-0.64 0.84,-0.64 0.71,0 0.71,0.34 0.71,1.3 V 435 c 0,1.34 0,3.68 5.12,3.68 v 1.55 c -1.75,-0.05 -4.19,-0.16 -5.83,-0.16 -1.64,0 -4.09,0.11 -5.82,0.16 v -1.55 c 5.12,0 5.12,-2.34 5.12,-3.68 v -21.29 z"
               id="path8317" /><path
               style="fill:#000000;stroke-width:0"
               inkscape:connector-curvature="0"
               d="m 516.3,416.86 -0.01,0.59 -0.04,0.59 -0.07,0.58 -0.1,0.57 -0.13,0.56 -0.14,0.55 -0.18,0.54 -0.2,0.53 -0.22,0.51 -0.25,0.5 -0.26,0.49 -0.29,0.47 -0.31,0.46 -0.33,0.44 -0.35,0.43 -0.36,0.4 -0.39,0.39 -0.4,0.37 -0.41,0.35 -0.44,0.32 -0.44,0.31 -0.46,0.28 -0.48,0.26 -0.49,0.24 -0.49,0.21 -0.51,0.18 -0.53,0.16 -0.53,0.13 -0.54,0.11 -0.54,0.07 -0.56,0.05 -0.56,0.01 -0.05,-1.09 c 2.19,0 4.33,-1.1 5.63,-3.24 1.29,-2.14 1.29,-5.03 1.29,-6.92 0,-1.8 0,-4.48 -1.09,-6.67 -1.09,-2.25 -3.28,-3.69 -5.78,-3.69 v 0 c -2.14,0 -4.33,1.05 -5.67,3.33 -1.25,2.2 -1.25,5.23 -1.25,7.03 0,1.94 0,4.63 1.18,6.83 1.36,2.28 3.69,3.33 5.69,3.33 l 0.05,1.09 c -6.22,0 -11.06,-5.42 -11.06,-11.65 0,-6.43 5.18,-11.21 11.01,-11.21 6.03,0 11.06,4.88 11.06,11.21 z"
               id="path8319" /><path
               style="fill:#000000;stroke-width:0"
               inkscape:connector-curvature="0"
               d="m 526.42,426.12 h 7.12 v 1.55 h -7.12 v 9.17 h -1.25 c -0.05,-4.08 -1.55,-9.42 -6.42,-9.61 v -1.11 h 4.23 v -13.75 c 0,-6.12 4.62,-6.72 6.42,-6.72 3.53,0 4.94,3.53 4.94,6.72 v 2.84 h -1.25 v -2.73 c 0,-3.69 -1.5,-5.58 -3.34,-5.58 -3.33,0 -3.33,4.53 -3.33,5.38 z"
               id="path8321" /><path
               style="fill:#000000;stroke-width:0"
               inkscape:connector-curvature="0"
               d="m 559.62,417.06 v 0.38 l 0.01,0.36 0.01,0.36 0.02,0.35 0.03,0.34 0.03,0.34 0.04,0.32 0.04,0.32 0.04,0.31 0.06,0.3 0.05,0.29 0.06,0.29 0.14,0.55 0.15,0.51 0.17,0.49 0.18,0.46 0.19,0.43 0.21,0.4 0.22,0.38 0.23,0.35 0.24,0.32 0.25,0.3 0.26,0.28 0.27,0.26 0.27,0.23 0.27,0.21 0.28,0.19 0.28,0.16 0.28,0.15 0.29,0.13 0.28,0.12 0.28,0.09 0.28,0.08 0.27,0.06 0.28,0.05 0.26,0.03 0.26,0.02 0.25,0.01 c 0.44,0 3.58,-0.05 5.33,-1.85 -2.05,-0.15 -2.34,-1.64 -2.34,-2.29 0,-1.3 0.89,-2.3 2.29,-2.3 1.28,0 2.28,0.86 2.28,2.34 0,3.39 -3.78,5.33 -7.62,5.33 -6.22,0 -10.81,-5.37 -10.81,-11.55 0,-6.37 4.93,-11.31 10.72,-11.31 6.67,0 8.26,5.99 8.26,6.47 0,0.5 -0.5,0.5 -0.64,0.5 -0.45,0 -0.55,-0.19 -0.66,-0.5 -1.43,-4.62 -4.67,-5.22 -6.51,-5.22 -2.64,0 -7.03,2.14 -7.03,10.16 z"
               id="path8323" /><path
               style="fill:#000000;stroke-width:0"
               inkscape:connector-curvature="0"
               d="m 599.34,416.86 -0.02,0.59 -0.04,0.59 -0.07,0.58 -0.1,0.57 -0.12,0.56 -0.15,0.55 -0.18,0.54 -0.2,0.53 -0.22,0.51 -0.24,0.5 -0.27,0.49 -0.29,0.47 -0.31,0.46 -0.33,0.44 -0.34,0.43 -0.37,0.4 -0.38,0.39 -0.4,0.37 -0.42,0.35 -0.43,0.32 -0.45,0.31 -0.46,0.28 -0.48,0.26 -0.48,0.24 -0.5,0.21 -0.51,0.18 -0.52,0.16 -0.53,0.13 -0.54,0.11 -0.55,0.07 -0.56,0.05 -0.56,0.01 -0.05,-1.09 c 2.19,0 4.33,-1.1 5.63,-3.24 1.3,-2.14 1.3,-5.03 1.3,-6.92 0,-1.8 0,-4.48 -1.1,-6.67 -1.09,-2.25 -3.28,-3.69 -5.78,-3.69 v 0 c -2.14,0 -4.33,1.05 -5.67,3.33 -1.25,2.2 -1.25,5.23 -1.25,7.03 0,1.94 0,4.63 1.19,6.83 1.36,2.28 3.68,3.33 5.68,3.33 l 0.05,1.09 c -6.22,0 -11.06,-5.42 -11.06,-11.65 0,-6.43 5.19,-11.21 11.01,-11.21 6.03,0 11.07,4.88 11.07,11.21 z"
               id="path8325" /><path
               style="fill:#000000;stroke-width:0"
               inkscape:connector-curvature="0"
               d="m 606.31,423.34 v -13.36 c 0,-2.23 -0.55,-2.23 -3.89,-2.23 v -1.55 c 1.75,0.05 4.28,0.16 5.62,0.16 1.3,0 3.89,-0.11 5.58,-0.16 v 1.55 c -3.33,0 -3.87,0 -3.87,2.23 v 9.17 c 0,5.19 3.53,7.97 6.72,7.97 3.13,0 3.68,-2.69 3.68,-5.53 v -11.61 c 0,-2.23 -0.55,-2.23 -3.89,-2.23 v -1.55 c 1.75,0.05 4.3,0.16 5.64,0.16 1.3,0 3.88,-0.11 5.58,-0.16 v 1.55 c -2.59,0 -3.84,0 -3.89,1.5 v 9.51 c 0,4.28 0,5.83 -1.55,7.61 -0.69,0.86 -2.34,1.84 -5.22,1.84 -3.64,0 -5.98,-2.14 -7.37,-5.21 v 5.21 l -7.03,-0.54 v -1.55 c 3.48,0 3.89,-0.34 3.89,-2.78 z"
               id="path8327" /><path
               style="fill:#000000;stroke-width:0"
               inkscape:connector-curvature="0"
               d="m 647.82,422.79 0.05,0.11 0.04,0.12 0.05,0.12 0.06,0.12 0.05,0.13 0.06,0.13 0.07,0.13 0.07,0.14 0.07,0.13 0.09,0.14 0.08,0.14 0.1,0.14 0.1,0.13 0.11,0.14 0.11,0.13 0.12,0.13 0.14,0.12 0.14,0.13 0.15,0.11 0.15,0.12 0.17,0.11 0.18,0.1 0.19,0.09 0.2,0.09 0.21,0.08 0.23,0.07 0.23,0.07 0.25,0.05 0.26,0.05 0.14,0.01 0.14,0.02 0.14,0.01 0.15,0.01 0.15,0.01 h 0.15 v 1.55 c -1.16,-0.1 -2.6,-0.14 -3.74,-0.14 -1.2,0 -3.5,0.09 -4.34,0.14 v -1.55 c 1.84,-0.05 2.39,-1.19 2.39,-2.14 0,-0.44 -0.09,-0.64 -0.3,-1.19 l -5.08,-12.7 -5.57,13.89 c -0.3,0.66 -0.3,0.75 -0.3,0.86 0,1.28 1.94,1.28 2.83,1.28 v 1.55 c -1.49,-0.05 -4.28,-0.14 -5.42,-0.14 -1.35,0 -3.35,0.04 -4.83,0.14 v -1.55 c 3.12,0 3.33,-0.3 3.98,-1.84 l 7.18,-17.67 c 0.29,-0.71 0.38,-0.96 1.04,-0.96 0.64,0 0.84,0.46 1.05,0.96 z"
               id="path8329" /><path
               style="fill:#000000;stroke-width:0"
               inkscape:connector-curvature="0"
               d="m 657.47,417.71 0.05,1.05 c 0.3,7.42 4.48,8.66 6.19,8.66 5.12,0 5.62,-6.72 5.62,-8.66 h -11.81 l -0.05,-1.05 h 13.91 c 1.09,0 1.23,0 1.23,1.05 0,4.92 -2.68,9.75 -8.9,9.75 -5.78,0 -10.38,-5.12 -10.38,-11.36 0,-6.67 5.24,-11.5 10.97,-11.5 6.08,0 8.31,5.53 8.31,6.47 0,0.5 -0.39,0.61 -0.64,0.61 -0.45,0 -0.54,-0.3 -0.65,-0.7 -1.74,-5.13 -6.22,-5.13 -6.72,-5.13 -2.5,0 -4.49,1.49 -5.63,3.33 -1.5,2.39 -1.5,5.69 -1.5,7.48 z"
               id="path8331" /><path
               style="fill:#000000;stroke-width:0"
               inkscape:connector-curvature="0"
               d="m 688.32,417.9 0.28,0.36 0.29,0.37 0.3,0.38 0.31,0.39 0.61,0.78 0.31,0.38 0.3,0.39 0.3,0.37 0.3,0.37 0.29,0.35 0.28,0.34 0.14,0.16 0.13,0.16 0.13,0.16 0.13,0.15 0.12,0.14 0.12,0.14 0.12,0.13 0.12,0.12 c 1.54,1.78 3.59,2.53 5.93,2.58 v 1.55 c -1.3,-0.1 -2.8,-0.14 -4.09,-0.14 -1.49,0 -4.13,0.09 -4.78,0.14 v -1.55 c 1.04,-0.09 1.45,-0.73 1.45,-1.53 0,-0.8 -0.5,-1.45 -0.75,-1.75 l -3.09,-3.89 -3.88,5.03 c -0.45,0.5 -0.45,0.61 -0.45,0.91 0,0.75 0.75,1.18 1.73,1.23 v 1.55 c -1.28,-0.05 -4.57,-0.14 -5.37,-0.14 -1.05,0 -3.39,0.04 -4.74,0.14 v -1.55 c 3.49,0 3.55,-0.05 5.88,-3.03 l 4.94,-6.42 -4.69,-5.94 c -2.39,-2.89 -5.33,-2.98 -6.38,-2.98 v -1.55 c 1.3,0.09 2.85,0.16 4.14,0.16 1.44,0 3.53,-0.11 4.74,-0.16 v 1.55 c -1.09,0.14 -1.46,0.79 -1.46,1.54 0,1.1 1.46,2.74 4.49,6.33 l 3.8,-4.98 c 0.39,-0.55 1.04,-1.35 1.04,-1.64 0,-0.46 -0.45,-1.21 -1.79,-1.25 v -1.55 c 1.48,0.05 4.28,0.16 5.37,0.16 1.34,0 3.3,-0.07 4.78,-0.16 v 1.55 c -2.69,0 -3.57,0.09 -4.73,1.54 z"
               id="path8333" /></g></g></g><g
         id="g8469"
         transform="translate(0.83825)"><path
           id="path8388"
           d="m 3611.4643,5585.7498 -0.085,0.127 -0.085,0.1058 -0.085,0.1059 -0.064,0.1058 -0.085,0.085 -0.063,0.085 -0.064,0.085 -0.063,0.064 -0.064,0.085 -0.064,0.064 -0.063,0.042 -0.085,0.064 -0.064,0.042 -0.063,0.042 -0.064,0.042 -0.085,0.042 -0.064,0.042 -0.085,0.021 -0.085,0.021 -0.085,0.021 -0.1059,0.021 -0.085,0.021 -0.1059,0.021 h -0.127 l -0.1058,0.021 h -0.127 -0.1482 l -0.127,0.021 h -0.1694 -0.063 -0.085 -0.085 -0.085 -0.1059 -0.085 -17.9301 v -3.2812 h 3.0695 c 1.5877,0 3.6834,-0.085 5.2711,-0.1905 2.4132,-0.3387 2.5403,-0.4234 2.5403,-2.4556 v -55.0395 c 0,-2.8366 0,-7.7902 -10.8809,-7.7902 v -3.2812 c 3.7046,0.1058 8.8698,0.3387 12.3415,0.3387 3.4929,0 8.6582,-0.2329 12.3416,-0.3387 v 3.2812 c -10.8597,0 -10.8597,4.9536 -10.8597,7.7902 v 54.849 c 0.5292,-0.5293 0.635,-0.6351 1.0584,-1.249 l 43.0366,-63.3166 c 0.9315,-1.249 1.0585,-1.3548 1.7782,-1.3548 1.503,0 1.503,0.7197 1.503,2.752 v 58.2148 c 0,2.8367 0,7.7902 10.8386,7.7902 v 3.2812 c -3.7046,-0.1058 -8.8698,-0.3387 -12.3416,-0.3387 -3.4717,0 -8.6581,0.2329 -12.3203,0.3387 v -3.2812 c 10.8385,0 10.8385,-4.9535 10.8385,-7.7902 v -45.0689 z"
           inkscape:connector-curvature="0"
           style="font-style:normal;font-variant:normal;font-weight:normal;font-stretch:normal;letter-spacing:normal;word-spacing:normal;text-anchor:start;fill:#000000;fill-opacity:1;fill-rule:evenodd;stroke:#000000;stroke-width:0;stroke-linecap:butt;stroke-linejoin:miter;stroke-miterlimit:10.43299961;stroke-dasharray:none;stroke-dashoffset:0;stroke-opacity:1" /><path
           id="path8390"
           d="m 3715.6582,5537.6749 -0.021,1.249 -0.085,1.2489 -0.1482,1.2278 -0.2117,1.2067 -0.2752,1.1854 -0.2964,1.1643 -0.381,1.1432 -0.4234,1.1219 -0.4657,1.0796 -0.5292,1.0585 -0.5504,1.0373 -0.6139,0.9949 -0.6563,0.9738 -0.6985,0.9314 -0.741,0.9103 -0.762,0.8468 -0.8256,0.8256 -0.8468,0.7832 -0.8679,0.7409 -0.9315,0.6774 -0.9314,0.6563 -0.9738,0.5927 -1.0161,0.5504 -1.0373,0.5081 -1.0373,0.4445 -1.0796,0.381 -1.1219,0.3388 -1.122,0.2751 -1.1431,0.2329 -1.1432,0.1482 -1.1854,0.1058 -1.1855,0.021 -0.1058,-2.3074 c 4.636,0 9.1662,-2.3286 11.9181,-6.8588 2.7308,-4.5302 2.7308,-10.648 2.7308,-14.649 0,-3.8104 0,-9.4837 -2.3074,-14.1197 -2.3074,-4.763 -6.9434,-7.8114 -12.2357,-7.8114 v 0 c -4.5302,0 -9.1662,2.2228 -12.0028,7.0493 -2.6462,4.6572 -2.6462,11.0714 -2.6462,14.8818 0,4.1068 0,9.8013 2.498,14.4585 2.879,4.8265 7.8114,7.0493 12.0452,7.0493 l 0.1058,2.3074 c -13.1671,0 -23.4129,-11.4736 -23.4129,-24.6619 0,-13.6117 10.9655,-23.7305 23.3071,-23.7305 12.7649,0 23.4129,10.3305 23.4129,23.7305 z"
           inkscape:connector-curvature="0"
           style="font-style:normal;font-variant:normal;font-weight:normal;font-stretch:normal;letter-spacing:normal;word-spacing:normal;text-anchor:start;fill:#000000;fill-opacity:1;fill-rule:evenodd;stroke:#000000;stroke-width:0;stroke-linecap:butt;stroke-linejoin:miter;stroke-miterlimit:10.43299961;stroke-dasharray:none;stroke-dashoffset:0;stroke-opacity:1" /><path
           id="path8392"
           d="m 3737.0813,5557.2774 h 15.0723 v 3.2812 h -15.0723 v 19.412 h -2.6462 c -0.1058,-8.637 -3.2812,-19.9412 -13.5905,-20.3434 v -2.3498 h 8.9545 V 5528.17 c 0,-12.9555 9.7801,-14.2256 13.5905,-14.2256 7.4727,0 10.4575,7.4727 10.4575,14.2256 v 6.012 h -2.6461 v -5.7792 c 0,-7.8113 -3.1753,-11.8123 -7.0704,-11.8123 -7.0493,0 -7.0493,9.5896 -7.0493,11.389 z"
           inkscape:connector-curvature="0"
           style="font-style:normal;font-variant:normal;font-weight:normal;font-stretch:normal;letter-spacing:normal;word-spacing:normal;text-anchor:start;fill:#000000;fill-opacity:1;fill-rule:evenodd;stroke:#000000;stroke-width:0;stroke-linecap:butt;stroke-linejoin:miter;stroke-miterlimit:10.43299961;stroke-dasharray:none;stroke-dashoffset:0;stroke-opacity:1" /><path
           id="path8394"
           d="m 3807.3625,5538.0983 v 0.8044 l 0.021,0.7621 0.021,0.7621 0.042,0.7409 0.064,0.7197 0.063,0.7198 0.085,0.6774 0.085,0.6774 0.085,0.6562 0.127,0.6351 0.1058,0.6139 0.127,0.6139 0.2964,1.1643 0.3176,1.0796 0.3598,1.0373 0.3811,0.9738 0.4022,0.9102 0.4445,0.8468 0.4657,0.8044 0.4869,0.7409 0.5081,0.6775 0.5292,0.635 0.5504,0.5928 0.5716,0.5504 0.5715,0.4868 0.5716,0.4446 0.5927,0.4022 0.5928,0.3387 0.5927,0.3175 0.6139,0.2752 0.5927,0.2541 0.5928,0.1905 0.5927,0.1693 0.5716,0.1271 0.5927,0.1058 0.5504,0.064 0.5504,0.042 0.5292,0.021 c 0.9315,0 7.5785,-0.1058 11.2831,-3.9163 -4.3396,-0.3175 -4.9535,-3.4717 -4.9535,-4.8477 0,-2.7519 1.884,-4.8688 4.8477,-4.8688 2.7096,0 4.8265,1.8205 4.8265,4.9535 0,7.1763 -8.0019,11.2831 -16.1308,11.2831 -13.1671,0 -22.8837,-11.3678 -22.8837,-24.4502 0,-13.4847 10.4363,-23.9422 22.6932,-23.9422 14.1197,0 17.4856,12.6803 17.4856,13.6964 0,1.0584 -1.0585,1.0584 -1.3548,1.0584 -0.9526,0 -1.1643,-0.4022 -1.3972,-1.0584 -3.0271,-9.7801 -9.8859,-11.0503 -13.781,-11.0503 -5.5886,0 -14.8818,4.5302 -14.8818,21.5078 z"
           inkscape:connector-curvature="0"
           style="font-style:normal;font-variant:normal;font-weight:normal;font-stretch:normal;letter-spacing:normal;word-spacing:normal;text-anchor:start;fill:#000000;fill-opacity:1;fill-rule:evenodd;stroke:#000000;stroke-width:0;stroke-linecap:butt;stroke-linejoin:miter;stroke-miterlimit:10.43299961;stroke-dasharray:none;stroke-dashoffset:0;stroke-opacity:1" /><path
           id="path8396"
           d="m 3891.4458,5537.6749 -0.042,1.249 -0.085,1.2489 -0.1482,1.2278 -0.2116,1.2067 -0.2541,1.1854 -0.3175,1.1643 -0.3811,1.1432 -0.4233,1.1219 -0.4657,1.0796 -0.5081,1.0585 -0.5716,1.0373 -0.6139,0.9949 -0.6562,0.9738 -0.6986,0.9314 -0.7197,0.9103 -0.7833,0.8468 -0.8044,0.8256 -0.8468,0.7832 -0.8891,0.7409 -0.9102,0.6774 -0.9526,0.6563 -0.9738,0.5927 -1.0161,0.5504 -1.0162,0.5081 -1.0584,0.4445 -1.0796,0.381 -1.1008,0.3388 -1.122,0.2751 -1.1431,0.2329 -1.1643,0.1482 -1.1855,0.1058 -1.1854,0.021 -0.1059,-2.3074 c 4.636,0 9.1662,-2.3286 11.9182,-6.8588 2.752,-4.5302 2.752,-10.648 2.752,-14.649 0,-3.8104 0,-9.4837 -2.3286,-14.1197 -2.3075,-4.763 -6.9435,-7.8114 -12.2357,-7.8114 v 0 c -4.5302,0 -9.1662,2.2228 -12.0029,7.0493 -2.6461,4.6572 -2.6461,11.0714 -2.6461,14.8818 0,4.1068 0,9.8013 2.5191,14.4585 2.879,4.8265 7.7902,7.0493 12.024,7.0493 l 0.1059,2.3074 c -13.1672,0 -23.413,-11.4736 -23.413,-24.6619 0,-13.6117 10.9868,-23.7305 23.3071,-23.7305 12.765,0 23.4341,10.3305 23.4341,23.7305 z"
           inkscape:connector-curvature="0"
           style="font-style:normal;font-variant:normal;font-weight:normal;font-stretch:normal;letter-spacing:normal;word-spacing:normal;text-anchor:start;fill:#000000;fill-opacity:1;fill-rule:evenodd;stroke:#000000;stroke-width:0;stroke-linecap:butt;stroke-linejoin:miter;stroke-miterlimit:10.43299961;stroke-dasharray:none;stroke-dashoffset:0;stroke-opacity:1" /><path
           id="path8398"
           d="m 3906.2007,5551.3924 v -28.2818 c 0,-4.7207 -1.1643,-4.7207 -8.2348,-4.7207 v -3.2812 c 3.7046,0.1058 9.0604,0.3387 11.897,0.3387 2.752,0 8.2348,-0.2329 11.8123,-0.3387 v 3.2812 c -7.0493,0 -8.1924,0 -8.1924,4.7207 v 19.412 c 0,10.9867 7.4727,16.8717 14.2256,16.8717 6.6259,0 7.7902,-5.6945 7.7902,-11.7065 v -24.5772 c 0,-4.7207 -1.1643,-4.7207 -8.2348,-4.7207 v -3.2812 c 3.7046,0.1058 9.1027,0.3387 11.9394,0.3387 2.7519,0 8.2136,-0.2329 11.8123,-0.3387 v 3.2812 c -5.4828,0 -8.1289,0 -8.2348,3.1754 v 20.1317 c 0,9.0603 0,12.3415 -3.2812,16.1096 -1.4606,1.8206 -4.9535,3.8951 -11.0502,3.8951 -7.7055,0 -12.6591,-4.5301 -15.6016,-11.029 v 11.029 l -14.8818,-1.1431 v -3.2812 c 7.3668,0 8.2348,-0.7197 8.2348,-5.885 z"
           inkscape:connector-curvature="0"
           style="font-style:normal;font-variant:normal;font-weight:normal;font-stretch:normal;letter-spacing:normal;word-spacing:normal;text-anchor:start;fill:#000000;fill-opacity:1;fill-rule:evenodd;stroke:#000000;stroke-width:0;stroke-linecap:butt;stroke-linejoin:miter;stroke-miterlimit:10.43299961;stroke-dasharray:none;stroke-dashoffset:0;stroke-opacity:1" /><path
           id="path8400"
           d="m 3994.0733,5550.2281 0.1058,0.2329 0.085,0.254 0.1059,0.254 0.127,0.2541 0.1058,0.2752 0.127,0.2752 0.1482,0.2752 0.1482,0.2963 0.1482,0.2752 0.1905,0.2964 0.1694,0.2964 0.2117,0.2963 0.2116,0.2752 0.2329,0.2964 0.2329,0.2752 0.254,0.2752 0.2964,0.254 0.2963,0.2752 0.3176,0.2329 0.3175,0.254 0.3599,0.2329 0.381,0.2116 0.4022,0.1906 0.4234,0.1905 0.4446,0.1693 0.4868,0.1482 0.4869,0.1482 0.5293,0.1058 0.5503,0.1059 0.2964,0.021 0.2964,0.042 0.2963,0.021 0.3176,0.021 0.3175,0.021 h 0.3176 v 3.2812 c -2.4557,-0.2117 -5.504,-0.2964 -7.9173,-0.2964 -2.5402,0 -7.4091,0.1906 -9.1873,0.2964 v -3.2812 c 3.8951,-0.1058 5.0594,-2.5191 5.0594,-4.5302 0,-0.9314 -0.1905,-1.3548 -0.6351,-2.5191 l -10.7539,-26.8846 -11.7911,29.4037 c -0.6351,1.3972 -0.6351,1.5877 -0.6351,1.8206 0,2.7096 4.1068,2.7096 5.9909,2.7096 v 3.2812 c -3.1542,-0.1058 -9.0604,-0.2964 -11.4737,-0.2964 -2.8578,0 -7.0916,0.085 -10.2246,0.2964 v -3.2812 c 6.6047,0 7.0493,-0.6351 8.4253,-3.8951 l 15.1993,-37.4057 c 0.6139,-1.503 0.8045,-2.0322 2.2016,-2.0322 1.3548,0 1.7782,0.9738 2.2228,2.0322 z"
           inkscape:connector-curvature="0"
           style="font-style:normal;font-variant:normal;font-weight:normal;font-stretch:normal;letter-spacing:normal;word-spacing:normal;text-anchor:start;fill:#000000;fill-opacity:1;fill-rule:evenodd;stroke:#000000;stroke-width:0;stroke-linecap:butt;stroke-linejoin:miter;stroke-miterlimit:10.43299961;stroke-dasharray:none;stroke-dashoffset:0;stroke-opacity:1" /><path
           id="path8402"
           d="m 4014.5014,5539.4743 0.1059,2.2227 c 0.635,15.7074 9.4837,18.3324 13.1036,18.3324 10.8385,0 11.897,-14.2256 11.897,-18.3324 h -25.0006 l -0.1059,-2.2227 h 29.4461 c 2.3075,0 2.6038,0 2.6038,2.2227 0,10.4152 -5.6733,20.6398 -18.8404,20.6398 -12.2357,0 -21.9735,-10.8385 -21.9735,-24.048 0,-14.1198 11.0926,-24.3444 23.2225,-24.3444 12.8707,0 17.5914,11.7065 17.5914,13.6964 0,1.0584 -0.8256,1.2913 -1.3548,1.2913 -0.9526,0 -1.1431,-0.6351 -1.376,-1.4819 -3.6834,-10.8597 -13.1671,-10.8597 -14.2256,-10.8597 -5.2922,0 -9.5049,3.1542 -11.9181,7.0493 -3.1754,5.0594 -3.1754,12.0452 -3.1754,15.8345 z"
           inkscape:connector-curvature="0"
           style="font-style:normal;font-variant:normal;font-weight:normal;font-stretch:normal;letter-spacing:normal;word-spacing:normal;text-anchor:start;fill:#000000;fill-opacity:1;fill-rule:evenodd;stroke:#000000;stroke-width:0;stroke-linecap:butt;stroke-linejoin:miter;stroke-miterlimit:10.43299961;stroke-dasharray:none;stroke-dashoffset:0;stroke-opacity:1" /><path
           id="path8404"
           d="m 4079.8079,5539.8765 0.5927,0.762 0.6139,0.7833 0.6351,0.8044 0.6562,0.8256 1.2913,1.6512 0.6563,0.8044 0.635,0.8256 0.6351,0.7833 0.6351,0.7832 0.6139,0.7409 0.5927,0.7198 0.2964,0.3387 0.2752,0.3387 0.2752,0.3387 0.2752,0.3175 0.254,0.2964 0.254,0.2964 0.2541,0.2752 0.254,0.254 c 3.26,3.7681 7.5997,5.3558 12.5532,5.4616 v 3.2812 c -2.752,-0.2117 -5.9273,-0.2964 -8.6581,-0.2964 -3.1542,0 -8.7428,0.1906 -10.1188,0.2964 v -3.2812 c 2.2016,-0.1905 3.0695,-1.5453 3.0695,-3.2389 0,-1.6935 -1.0584,-3.0695 -1.5877,-3.7045 l -6.5412,-8.2348 -8.2136,10.648 c -0.9526,1.0585 -0.9526,1.2913 -0.9526,1.9264 0,1.5877 1.5877,2.498 3.6622,2.6038 v 3.2812 c -2.7096,-0.1058 -9.6742,-0.2964 -11.3677,-0.2964 -2.2228,0 -7.1763,0.085 -10.0341,0.2964 v -3.2812 c 7.388,0 7.515,-0.1058 12.4473,-6.4142 l 10.4575,-13.5905 -9.9282,-12.5744 c -5.0594,-6.1179 -11.2831,-6.3084 -13.5059,-6.3084 v -3.2812 c 2.752,0.1905 6.0332,0.3387 8.764,0.3387 3.0484,0 7.4727,-0.2329 10.0341,-0.3387 v 3.2812 c -2.3074,0.2964 -3.0906,1.6724 -3.0906,3.26 0,2.3286 3.0906,5.8003 9.5048,13.4 l 8.0443,-10.5422 c 0.8256,-1.1642 2.2016,-2.8578 2.2016,-3.4717 0,-0.9737 -0.9526,-2.5614 -3.7893,-2.6461 v -3.2812 c 3.133,0.1058 9.0603,0.3387 11.3678,0.3387 2.8366,0 6.9858,-0.1482 10.1188,-0.3387 v 3.2812 c -5.6945,0 -7.5574,0.1905 -10.013,3.26 z"
           inkscape:connector-curvature="0"
           style="font-style:normal;font-variant:normal;font-weight:normal;font-stretch:normal;letter-spacing:normal;word-spacing:normal;text-anchor:start;fill:#000000;fill-opacity:1;fill-rule:evenodd;stroke:#000000;stroke-width:0;stroke-linecap:butt;stroke-linejoin:miter;stroke-miterlimit:10.43299961;stroke-dasharray:none;stroke-dashoffset:0;stroke-opacity:1" /></g></g></g></svg>