<?xml version="1.0" encoding="UTF-8" standalone="no"?>
<!-- Created with Inkscape (http://www.inkscape.org/) -->

<svg
   xmlns:dc="http://purl.org/dc/elements/1.1/"
   xmlns:cc="http://creativecommons.org/ns#"
   xmlns:rdf="http://www.w3.org/1999/02/22-rdf-syntax-ns#"
   xmlns:svg="http://www.w3.org/2000/svg"
   xmlns="http://www.w3.org/2000/svg"
   xmlns:sodipodi="http://sodipodi.sourceforge.net/DTD/sodipodi-0.dtd"
   xmlns:inkscape="http://www.inkscape.org/namespaces/inkscape"
   version="1.1"
   id="svg12580"
   xml:space="preserve"
   width="816"
   height="1056"
   viewBox="0 0 816 1056"
   sodipodi:docname="convex_hull.svg"
   inkscape:version="0.92.1 unknown"><metadata
     id="metadata12586"><rdf:RDF><cc:Work
         rdf:about=""><dc:format>image/svg+xml</dc:format><dc:type
           rdf:resource="http://purl.org/dc/dcmitype/StillImage" /><dc:title></dc:title></cc:Work></rdf:RDF></metadata><defs
     id="defs12584"><clipPath
       clipPathUnits="userSpaceOnUse"
       id="clipPath12606"><path
         d="m 1963.8,6681.18 v -618.69 h 2857 v 618.69 z"
         id="path12604"
         inkscape:connector-curvature="0" /></clipPath><clipPath
       clipPathUnits="userSpaceOnUse"
       id="clipPath12686"><path
         d="M 2231.73,5123.77 V 4356 h 2321 v 767.77 z"
         id="path12684"
         inkscape:connector-curvature="0" /></clipPath><clipPath
       clipPathUnits="userSpaceOnUse"
       id="clipPath12686-7"><path
         d="M 2231.73,5123.77 V 4356 h 2321 v 767.77 z"
         id="path12684-5"
         inkscape:connector-curvature="0" /></clipPath></defs><sodipodi:namedview
     pagecolor="#ffffff"
     bordercolor="#666666"
     borderopacity="1"
     objecttolerance="10"
     gridtolerance="10"
     guidetolerance="10"
     inkscape:pageopacity="0"
     inkscape:pageshadow="2"
     inkscape:window-width="2560"
     inkscape:window-height="1576"
     id="namedview12582"
     showgrid="false"
     inkscape:zoom="3.5757576"
     inkscape:cx="299.04366"
     inkscape:cy="724.07206"
     inkscape:window-x="2560"
     inkscape:window-y="24"
     inkscape:window-maximized="1"
     inkscape:current-layer="g12682" /><g
     id="g12588"
     inkscape:groupmode="layer"
     inkscape:label="Convex Optimization - Boyd"
     transform="matrix(1.3333333,0,0,-1.3333333,0,1056)"><g
       id="g12590"
       transform="scale(0.1)"><g
         transform="translate(-1291.3278,412.74164)"
         id="g12680"><g
           id="g12682"
           clip-path="url(#clipPath12686-7)"><path
             d="m 2445.37,4368.57 -200.58,240.69 200.58,501.45 601.74,-100.29 -100.29,-601.74 -501.45,-40.11"
             style="fill:#e6e6e6;fill-opacity:1;fill-rule:evenodd;stroke:none"
             id="path12688"
             inkscape:connector-curvature="0" /><path
             d="m 2445.37,4368.57 -200.58,240.69 200.58,501.45 601.74,-100.29 -100.29,-601.74 z"
             style="fill:none;stroke:#000000;stroke-width:1.67148995;stroke-linecap:butt;stroke-linejoin:miter;stroke-miterlimit:10;stroke-dasharray:none;stroke-opacity:1"
             id="path12690"
             inkscape:connector-curvature="0" /><path
             d="m 2655.98,4809.84 c 0,-5.53 -4.5,-10.03 -10.03,-10.03 -5.54,0 -10.03,4.5 -10.03,10.03 0,5.54 4.49,10.03 10.03,10.03 5.53,0 10.03,-4.49 10.03,-10.03"
             style="fill:#000000;fill-opacity:1;fill-rule:evenodd;stroke:none"
             id="path12692"
             inkscape:connector-curvature="0" /><path
             d="m 2655.98,4809.84 c 0,-5.53 -4.5,-10.03 -10.03,-10.03 -5.54,0 -10.03,4.5 -10.03,10.03 0,5.54 4.49,10.03 10.03,10.03 5.53,0 10.03,-4.49 10.03,-10.03 z"
             style="fill:none;stroke:#000000;stroke-width:1.67148995;stroke-linecap:butt;stroke-linejoin:miter;stroke-miterlimit:10;stroke-dasharray:none;stroke-opacity:1"
             id="path12694"
             inkscape:connector-curvature="0" /><path
             d="m 2806.41,4649.38 c 0,-5.54 -4.49,-10.03 -10.03,-10.03 -5.53,0 -10.03,4.49 -10.03,10.03 0,5.53 4.5,10.03 10.03,10.03 5.54,0 10.03,-4.5 10.03,-10.03"
             style="fill:#000000;fill-opacity:1;fill-rule:evenodd;stroke:none"
             id="path12696"
             inkscape:connector-curvature="0" /><path
             d="m 2806.41,4649.38 c 0,-5.54 -4.49,-10.03 -10.03,-10.03 -5.53,0 -10.03,4.49 -10.03,10.03 0,5.53 4.5,10.03 10.03,10.03 5.54,0 10.03,-4.5 10.03,-10.03 z"
             style="fill:none;stroke:#000000;stroke-width:1.67148995;stroke-linecap:butt;stroke-linejoin:miter;stroke-miterlimit:10;stroke-dasharray:none;stroke-opacity:1"
             id="path12698"
             inkscape:connector-curvature="0" /><path
             d="m 2405.25,4769.73 c 0,-5.54 -4.49,-10.03 -10.03,-10.03 -5.53,0 -10.02,4.49 -10.02,10.03 0,5.53 4.49,10.02 10.02,10.02 5.54,0 10.03,-4.49 10.03,-10.02"
             style="fill:#000000;fill-opacity:1;fill-rule:evenodd;stroke:none"
             id="path12700"
             inkscape:connector-curvature="0" /><path
             d="m 2405.25,4769.73 c 0,-5.54 -4.49,-10.03 -10.03,-10.03 -5.53,0 -10.02,4.49 -10.02,10.03 0,5.53 4.49,10.02 10.02,10.02 5.54,0 10.03,-4.49 10.03,-10.02 z"
             style="fill:none;stroke:#000000;stroke-width:1.67148995;stroke-linecap:butt;stroke-linejoin:miter;stroke-miterlimit:10;stroke-dasharray:none;stroke-opacity:1"
             id="path12702"
             inkscape:connector-curvature="0" /><path
             d="m 2575.75,4438.77 c 0,-5.54 -4.5,-10.03 -10.04,-10.03 -5.53,0 -10.02,4.49 -10.02,10.03 0,5.53 4.49,10.03 10.02,10.03 5.54,0 10.04,-4.5 10.04,-10.03"
             style="fill:#000000;fill-opacity:1;fill-rule:evenodd;stroke:none"
             id="path12704"
             inkscape:connector-curvature="0" /><path
             d="m 2575.75,4438.77 c 0,-5.54 -4.5,-10.03 -10.04,-10.03 -5.53,0 -10.02,4.49 -10.02,10.03 0,5.53 4.49,10.03 10.02,10.03 5.54,0 10.04,-4.5 10.04,-10.03 z"
             style="fill:none;stroke:#000000;stroke-width:1.67148995;stroke-linecap:butt;stroke-linejoin:miter;stroke-miterlimit:10;stroke-dasharray:none;stroke-opacity:1"
             id="path12706"
             inkscape:connector-curvature="0" /><path
             d="m 2545.66,5030.48 c 0,-5.53 -4.5,-10.03 -10.03,-10.03 -5.54,0 -10.03,4.5 -10.03,10.03 0,5.54 4.49,10.03 10.03,10.03 5.53,0 10.03,-4.49 10.03,-10.03"
             style="fill:#000000;fill-opacity:1;fill-rule:evenodd;stroke:none"
             id="path12708"
             inkscape:connector-curvature="0" /><path
             d="m 2545.66,5030.48 c 0,-5.53 -4.5,-10.03 -10.03,-10.03 -5.54,0 -10.03,4.5 -10.03,10.03 0,5.54 4.49,10.03 10.03,10.03 5.53,0 10.03,-4.49 10.03,-10.03 z"
             style="fill:none;stroke:#000000;stroke-width:1.67148995;stroke-linecap:butt;stroke-linejoin:miter;stroke-miterlimit:10;stroke-dasharray:none;stroke-opacity:1"
             id="path12710"
             inkscape:connector-curvature="0" /><path
             d="m 2605.83,4599.23 c 0,-5.53 -4.49,-10.02 -10.03,-10.02 -5.53,0 -10.03,4.49 -10.03,10.02 0,5.54 4.5,10.03 10.03,10.03 5.54,0 10.03,-4.49 10.03,-10.03"
             style="fill:#000000;fill-opacity:1;fill-rule:evenodd;stroke:none"
             id="path12712"
             inkscape:connector-curvature="0" /><path
             d="m 2605.83,4599.23 c 0,-5.53 -4.49,-10.02 -10.03,-10.02 -5.53,0 -10.03,4.49 -10.03,10.02 0,5.54 4.5,10.03 10.03,10.03 5.54,0 10.03,-4.49 10.03,-10.03 z"
             style="fill:none;stroke:#000000;stroke-width:1.67148995;stroke-linecap:butt;stroke-linejoin:miter;stroke-miterlimit:10;stroke-dasharray:none;stroke-opacity:1"
             id="path12714"
             inkscape:connector-curvature="0" /><path
             d="m 2876.61,4458.83 c 0,-5.54 -4.49,-10.03 -10.02,-10.03 -5.54,0 -10.04,4.49 -10.04,10.03 0,5.53 4.5,10.03 10.04,10.03 5.53,0 10.02,-4.5 10.02,-10.03"
             style="fill:#000000;fill-opacity:1;fill-rule:evenodd;stroke:none"
             id="path12716"
             inkscape:connector-curvature="0" /><path
             d="m 2876.61,4458.83 c 0,-5.54 -4.49,-10.03 -10.02,-10.03 -5.54,0 -10.04,4.49 -10.04,10.03 0,5.53 4.5,10.03 10.04,10.03 5.53,0 10.02,-4.5 10.02,-10.03 z"
             style="fill:none;stroke:#000000;stroke-width:1.67148995;stroke-linecap:butt;stroke-linejoin:miter;stroke-miterlimit:10;stroke-dasharray:none;stroke-opacity:1"
             id="path12718"
             inkscape:connector-curvature="0" /><path
             d="m 2926.76,4870.02 c 0,-5.54 -4.49,-10.03 -10.03,-10.03 -5.53,0 -10.03,4.49 -10.03,10.03 0,5.53 4.5,10.02 10.03,10.02 5.54,0 10.03,-4.49 10.03,-10.02"
             style="fill:#000000;fill-opacity:1;fill-rule:evenodd;stroke:none"
             id="path12720"
             inkscape:connector-curvature="0" /><path
             d="m 2926.76,4870.02 c 0,-5.54 -4.49,-10.03 -10.03,-10.03 -5.53,0 -10.03,4.49 -10.03,10.03 0,5.53 4.5,10.02 10.03,10.02 5.54,0 10.03,-4.49 10.03,-10.02 z"
             style="fill:none;stroke:#000000;stroke-width:1.67148995;stroke-linecap:butt;stroke-linejoin:miter;stroke-miterlimit:10;stroke-dasharray:none;stroke-opacity:1"
             id="path12722"
             inkscape:connector-curvature="0" /><path
             d="m 2445.37,4508.97 c 0,-5.53 -4.49,-10.02 -10.03,-10.02 -5.54,0 -10.03,4.49 -10.03,10.02 0,5.54 4.49,10.03 10.03,10.03 5.54,0 10.03,-4.49 10.03,-10.03"
             style="fill:#000000;fill-opacity:1;fill-rule:evenodd;stroke:none"
             id="path12724"
             inkscape:connector-curvature="0" /><path
             d="m 2445.37,4508.97 c 0,-5.53 -4.49,-10.02 -10.03,-10.02 -5.54,0 -10.03,4.49 -10.03,10.02 0,5.54 4.49,10.03 10.03,10.03 5.54,0 10.03,-4.49 10.03,-10.03 z"
             style="fill:none;stroke:#000000;stroke-width:1.67148995;stroke-linecap:butt;stroke-linejoin:miter;stroke-miterlimit:10;stroke-dasharray:none;stroke-opacity:1"
             id="path12726"
             inkscape:connector-curvature="0" /><path
             d="m 2455.4,5110.71 c 0,-5.53 -4.5,-10.03 -10.03,-10.03 -5.54,0 -10.03,4.5 -10.03,10.03 0,5.54 4.49,10.03 10.03,10.03 5.53,0 10.03,-4.49 10.03,-10.03"
             style="fill:#000000;fill-opacity:1;fill-rule:evenodd;stroke:none"
             id="path12728"
             inkscape:connector-curvature="0" /><path
             d="m 2455.4,5110.71 c 0,-5.53 -4.5,-10.03 -10.03,-10.03 -5.54,0 -10.03,4.5 -10.03,10.03 0,5.54 4.49,10.03 10.03,10.03 5.53,0 10.03,-4.49 10.03,-10.03 z"
             style="fill:none;stroke:#000000;stroke-width:1.67148995;stroke-linecap:butt;stroke-linejoin:miter;stroke-miterlimit:10;stroke-dasharray:none;stroke-opacity:1"
             id="path12730"
             inkscape:connector-curvature="0" /><path
             d="m 3057.13,5010.42 c 0,-5.53 -4.49,-10.03 -10.02,-10.03 -5.54,0 -10.03,4.5 -10.03,10.03 0,5.54 4.49,10.03 10.03,10.03 5.53,0 10.02,-4.49 10.02,-10.03"
             style="fill:#000000;fill-opacity:1;fill-rule:evenodd;stroke:none"
             id="path12732"
             inkscape:connector-curvature="0" /><path
             d="m 3057.13,5010.42 c 0,-5.53 -4.49,-10.03 -10.02,-10.03 -5.54,0 -10.03,4.5 -10.03,10.03 0,5.54 4.49,10.03 10.03,10.03 5.53,0 10.02,-4.49 10.02,-10.03 z"
             style="fill:none;stroke:#000000;stroke-width:1.67148995;stroke-linecap:butt;stroke-linejoin:miter;stroke-miterlimit:10;stroke-dasharray:none;stroke-opacity:1"
             id="path12734"
             inkscape:connector-curvature="0" /><path
             d="m 2956.84,4408.68 c 0,-5.53 -4.49,-10.02 -10.02,-10.02 -5.54,0 -10.03,4.49 -10.03,10.02 0,5.54 4.49,10.03 10.03,10.03 5.53,0 10.02,-4.49 10.02,-10.03"
             style="fill:#000000;fill-opacity:1;fill-rule:evenodd;stroke:none"
             id="path12736"
             inkscape:connector-curvature="0" /><path
             d="m 2956.84,4408.68 c 0,-5.53 -4.49,-10.02 -10.02,-10.02 -5.54,0 -10.03,4.49 -10.03,10.02 0,5.54 4.49,10.03 10.03,10.03 5.53,0 10.02,-4.49 10.02,-10.03 z"
             style="fill:none;stroke:#000000;stroke-width:1.67148995;stroke-linecap:butt;stroke-linejoin:miter;stroke-miterlimit:10;stroke-dasharray:none;stroke-opacity:1"
             id="path12738"
             inkscape:connector-curvature="0" /><path
             d="m 2254.82,4609.26 c 0,-5.53 -4.5,-10.03 -10.03,-10.03 -5.54,0 -10.03,4.5 -10.03,10.03 0,5.54 4.49,10.03 10.03,10.03 5.53,0 10.03,-4.49 10.03,-10.03"
             style="fill:#000000;fill-opacity:1;fill-rule:evenodd;stroke:none"
             id="path12740"
             inkscape:connector-curvature="0" /><path
             d="m 2254.82,4609.26 c 0,-5.53 -4.5,-10.03 -10.03,-10.03 -5.54,0 -10.03,4.5 -10.03,10.03 0,5.54 4.49,10.03 10.03,10.03 5.53,0 10.03,-4.49 10.03,-10.03 z"
             style="fill:none;stroke:#000000;stroke-width:1.67148995;stroke-linecap:butt;stroke-linejoin:miter;stroke-miterlimit:10;stroke-dasharray:none;stroke-opacity:1"
             id="path12742"
             inkscape:connector-curvature="0" /><path
             d="m 2455.4,4368.57 c 0,-5.53 -4.5,-10.03 -10.03,-10.03 -5.54,0 -10.03,4.5 -10.03,10.03 0,5.54 4.49,10.03 10.03,10.03 5.53,0 10.03,-4.49 10.03,-10.03"
             style="fill:#000000;fill-opacity:1;fill-rule:evenodd;stroke:none"
             id="path12744"
             inkscape:connector-curvature="0" /><path
             d="m 2455.4,4368.57 c 0,-5.53 -4.5,-10.03 -10.03,-10.03 -5.54,0 -10.03,4.5 -10.03,10.03 0,5.54 4.49,10.03 10.03,10.03 5.53,0 10.03,-4.49 10.03,-10.03 z"
             style="fill:none;stroke:#000000;stroke-width:1.67148995;stroke-linecap:butt;stroke-linejoin:miter;stroke-miterlimit:10;stroke-dasharray:none;stroke-opacity:1"
             id="path12746"
             inkscape:connector-curvature="0" /><path
             d="m 2856.55,5030.48 c 0,-5.53 -4.49,-10.03 -10.02,-10.03 -5.54,0 -10.03,4.5 -10.03,10.03 0,5.54 4.49,10.03 10.03,10.03 5.53,0 10.02,-4.49 10.02,-10.03"
             style="fill:#000000;fill-opacity:1;fill-rule:evenodd;stroke:none"
             id="path12748"
             inkscape:connector-curvature="0" /><path
             d="m 2856.55,5030.48 c 0,-5.53 -4.49,-10.03 -10.02,-10.03 -5.54,0 -10.03,4.5 -10.03,10.03 0,5.54 4.49,10.03 10.03,10.03 5.53,0 10.02,-4.49 10.02,-10.03 z"
             style="fill:none;stroke:#000000;stroke-width:1.67148995;stroke-linecap:butt;stroke-linejoin:miter;stroke-miterlimit:10;stroke-dasharray:none;stroke-opacity:1"
             id="path12750"
             inkscape:connector-curvature="0" /><path
             d="m 3882.18,4457.27 534.88,133.72 -275.68,344.33 -414.54,-88.71 -3.34,-26.74"
             style="fill:#e6e6e6;fill-opacity:1;fill-rule:evenodd;stroke:none"
             id="path12752"
             inkscape:connector-curvature="0" /><path
             d="m 3880.62,4457.27 534.88,133.72"
             style="fill:#e6e6e6;fill-opacity:1;fill-rule:evenodd;stroke:none"
             id="path12754"
             inkscape:connector-curvature="0" /><path
             d="m 3880.62,4457.27 534.88,133.72"
             style="fill:none;stroke:#000000;stroke-width:1.67148995;stroke-linecap:butt;stroke-linejoin:miter;stroke-miterlimit:10;stroke-dasharray:none;stroke-opacity:1"
             id="path12756"
             inkscape:connector-curvature="0" /><path
             d="m 4035.96,4778.42 13.82,2.67 13.81,1.56 13.82,0.67 13.82,-0.22 13.37,-1.12 12.93,-2 12.26,-2.9 11.81,-3.56 11.14,-4.02 10.7,-4.9 9.81,-5.12 9.36,-5.8 8.91,-6.24 8.02,-6.46 7.8,-6.69 7.36,-7.13 6.91,-7.36 6.46,-7.35 6.47,-7.58 6.01,-7.57 6.02,-7.8 5.79,-7.58 5.8,-7.8 5.79,-7.58 6.02,-7.8 6.01,-7.35 6.47,-7.36 6.46,-7.13 6.69,-6.69 7.13,-6.68 7.58,-6.02 8.02,-5.8 8.25,-5.34 8.91,-4.91 9.14,-4.01 9.58,-3.56 9.81,-2.68 10.25,-2 10.7,-0.9 h 10.47 l 10.7,0.9 10.25,2.22 10.25,3.35 9.36,4.45 7.58,4.91 7.13,5.79 6.69,6.46 6.02,6.91 5.57,7.36 5.12,7.8 4.91,8.02 4.45,8.25 4.24,8.24 4.01,8.47 3.79,8.25 3.56,8.47 3.57,8.24 3.34,8.25 3.13,8.24 3.11,8.03 3.12,8.02 2.9,8.02 2.9,7.81 2.9,7.8 2.89,7.57 2.68,7.58 2.45,7.58 2.45,7.58 2.45,7.57 2.23,7.58 2.01,7.58 1.78,7.8 1.56,7.57 1.34,7.81 1.11,8.02 0.89,8.02 0.23,8.25 v 8.24 l -0.67,8.47 -1.12,8.69 -1.78,8.7 -2.23,9.13 -3.12,8.92 -4.01,9.36 -4.9,9.14 -5.8,9.36 -6.68,9.58 -8.03,9.36 -9.14,9.14 -10.25,9.13 -11.59,8.7 -12.92,8.46 -14.26,8.03 -15.61,7.35 -14.04,5.57 -14.48,5.13 -15.38,4.68 -15.6,4.24 -16.05,3.79 -16.27,3.34 -16.27,3.12 -16.27,2.67 -16.26,2.45 -16.05,2.01 -15.83,1.78 -15.59,1.79 -15.38,1.33 -15.16,1.34 -14.71,1.12 -14.48,0.89 -14.27,0.66 -13.81,0.67 -13.38,0.67 -13.37,0.45 -12.92,0.44 -12.71,0.23 -12.26,0.22 -12.25,0.22 h -47.47 l -11.37,-0.22 -11.59,-0.22 -11.59,-0.45 -11.36,-0.22 -11.59,-0.67 -11.59,-0.45 -11.81,-0.67 -11.82,-0.89 -12.03,-0.89 -12.03,-1.11 -12.26,-1.12 -12.7,-1.33 -12.71,-1.57 -12.93,-1.78 -13.15,-2 -13.37,-2.23 -13.59,-2.45 -14.04,-2.68 -14.04,-3.12 -14.04,-3.34 -14.49,-3.79 -14.48,-4.24 -14.49,-4.45 -14.49,-4.9 -14.26,-5.35 -14.26,-5.8 -13.82,-6.46 -13.38,-6.69 -12.92,-7.35 -12.48,-7.8 -11.37,-8.25 -10.47,-8.91 -10.7,-10.7 -9.36,-11.37 -7.8,-11.59 -6.24,-12.03 -5.12,-12.03 -4.02,-12.04 -2.67,-12.26 -1.79,-12.03 -0.66,-11.81 0.22,-11.82 0.89,-11.59 1.78,-11.36 2.46,-10.92 2.89,-10.92 3.57,-10.48 4.01,-10.47 4.23,-10.03 4.68,-10.03 5.13,-9.58 5.35,-9.58 5.57,-9.14 5.8,-9.36 6.01,-8.92 6.24,-8.91 6.24,-8.92 6.47,-8.91 6.46,-8.69 6.69,-8.69 6.68,-8.69 6.91,-8.92 6.69,-8.69 7.13,-8.92 6.91,-8.91 7.13,-8.92 7.13,-8.91 7.13,-9.14 7.13,-9.14 7.36,-9.13 7.35,-9.14 7.36,-9.36 7.58,-9.14 7.35,-9.14 7.58,-9.13 7.8,-8.7 7.57,-8.69 7.8,-8.24 7.81,-7.8 7.8,-7.14 8.02,-6.68 7.8,-5.8 8.02,-5.12 7.8,-3.79 10.25,-3.35 9.81,-1.33 9.59,0.22 8.69,2.01 8.24,3.34 7.13,4.68 6.47,5.57 5.57,6.69 4.68,7.35 3.79,8.03 3.12,8.69 2.45,9.14 1.78,9.58 1.34,9.8 0.67,10.26 0.22,10.25 v 10.7 l -0.22,10.47 -0.45,10.92 -0.45,10.7 -0.22,10.92 -0.44,10.92 v 10.92 l 0.22,10.92 0.67,11.15 1.11,10.69 1.79,10.92 2.67,10.7 3.12,10.7 4.23,10.25 5.13,10.25 6.24,9.81 7.13,9.58 8.47,8.92 9.58,8.69 10.93,7.8 11.81,7.13 12.92,6.24 13.82,5.35"
             style="fill:#b3b3b3;fill-opacity:1;fill-rule:evenodd;stroke:none"
             id="path12758"
             inkscape:connector-curvature="0" /><path
             d="m 4035.96,4778.42 13.82,2.67 13.81,1.56 13.82,0.67 13.82,-0.22 13.37,-1.12 12.93,-2 12.26,-2.9 11.81,-3.56 11.14,-4.02 10.7,-4.9 9.81,-5.12 9.36,-5.8 8.91,-6.24 8.02,-6.46 7.8,-6.69 7.36,-7.13 6.91,-7.36 6.46,-7.35 6.47,-7.58 6.01,-7.57 6.02,-7.8 5.79,-7.58 5.8,-7.8 5.79,-7.58 6.02,-7.8 6.01,-7.35 6.47,-7.36 6.46,-7.13 6.69,-6.69 7.13,-6.68 7.58,-6.02 8.02,-5.8 8.25,-5.34 8.91,-4.91 9.14,-4.01 9.58,-3.56 9.81,-2.68 10.25,-2 10.7,-0.9 h 10.47 l 10.7,0.9 10.25,2.22 10.25,3.35 9.36,4.45 7.58,4.91 7.13,5.79 6.69,6.46 6.02,6.91 5.57,7.36 5.12,7.8 4.91,8.02 4.45,8.25 4.24,8.24 4.01,8.47 3.79,8.25 3.56,8.47 3.57,8.24 3.34,8.25 3.13,8.24 3.11,8.03 3.12,8.02 2.9,8.02 2.9,7.81 2.9,7.8 2.89,7.57 2.68,7.58 2.45,7.58 2.45,7.58 2.45,7.57 2.23,7.58 2.01,7.58 1.78,7.8 1.56,7.57 1.34,7.81 1.11,8.02 0.89,8.02 0.23,8.25 v 8.24 l -0.67,8.47 -1.12,8.69 -1.78,8.7 -2.23,9.13 -3.12,8.92 -4.01,9.36 -4.9,9.14 -5.8,9.36 -6.68,9.58 -8.03,9.36 -9.14,9.14 -10.25,9.13 -11.59,8.7 -12.92,8.46 -14.26,8.03 -15.61,7.35 -14.04,5.57 -14.48,5.13 -15.38,4.68 -15.6,4.24 -16.05,3.79 -16.27,3.34 -16.27,3.12 -16.27,2.67 -16.26,2.45 -16.05,2.01 -15.83,1.78 -15.59,1.79 -15.38,1.33 -15.16,1.34 -14.71,1.12 -14.48,0.89 -14.27,0.66 -13.81,0.67 -13.38,0.67 -13.37,0.45 -12.92,0.44 -12.71,0.23 -12.26,0.22 -12.25,0.22 h -47.47 l -11.37,-0.22 -11.59,-0.22 -11.59,-0.45 -11.36,-0.22 -11.59,-0.67 -11.59,-0.45 -11.81,-0.67 -11.82,-0.89 -12.03,-0.89 -12.03,-1.11 -12.26,-1.12 -12.7,-1.33 -12.71,-1.57 -12.93,-1.78 -13.15,-2 -13.37,-2.23 -13.59,-2.45 -14.04,-2.68 -14.04,-3.12 -14.04,-3.34 -14.49,-3.79 -14.48,-4.24 -14.49,-4.45 -14.49,-4.9 -14.26,-5.35 -14.26,-5.8 -13.82,-6.46 -13.38,-6.69 -12.92,-7.35 -12.48,-7.8 -11.37,-8.25 -10.47,-8.91 -10.7,-10.7 -9.36,-11.37 -7.8,-11.59 -6.24,-12.03 -5.12,-12.03 -4.02,-12.04 -2.67,-12.26 -1.79,-12.03 -0.66,-11.81 0.22,-11.82 0.89,-11.59 1.78,-11.36 2.46,-10.92 2.89,-10.92 3.57,-10.48 4.01,-10.47 4.23,-10.03 4.68,-10.03 5.13,-9.58 5.35,-9.58 5.57,-9.14 5.8,-9.36 6.01,-8.92 6.24,-8.91 6.24,-8.92 6.47,-8.91 6.46,-8.69 6.69,-8.69 6.68,-8.69 6.91,-8.92 6.69,-8.69 7.13,-8.92 6.91,-8.91 7.13,-8.92 7.13,-8.91 7.13,-9.14 7.13,-9.14 7.36,-9.13 7.35,-9.14 7.36,-9.36 7.58,-9.14 7.35,-9.14 7.58,-9.13 7.8,-8.7 7.57,-8.69 7.8,-8.24 7.81,-7.8 7.8,-7.14 8.02,-6.68 7.8,-5.8 8.02,-5.12 7.8,-3.79 10.25,-3.35 9.81,-1.33 9.59,0.22 8.69,2.01 8.24,3.34 7.13,4.68 6.47,5.57 5.57,6.69 4.68,7.35 3.79,8.03 3.12,8.69 2.45,9.14 1.78,9.58 1.34,9.8 0.67,10.26 0.22,10.25 v 10.7 l -0.22,10.47 -0.45,10.92 -0.45,10.7 -0.22,10.92 -0.44,10.92 v 10.92 l 0.22,10.92 0.67,11.15 1.11,10.69 1.79,10.92 2.67,10.7 3.12,10.7 4.23,10.25 5.13,10.25 6.24,9.81 7.13,9.58 8.47,8.92 9.58,8.69 10.93,7.8 11.81,7.13 12.92,6.24 13.82,5.35 z"
             style="fill:none;stroke:#000000;stroke-width:1.67148995;stroke-linecap:butt;stroke-linejoin:bevel;stroke-miterlimit:10;stroke-dasharray:none;stroke-opacity:1"
             id="path12760"
             inkscape:connector-curvature="0" /></g></g><g
         id="g11313"
         transform="matrix(12.342565,0,0,-12.342565,1537.8008,6467.8321)"><g
           id="content"
           transform="matrix(0.3,0,0,-0.3,-52.5,222.75)"
           xml:space="preserve"
           stroke-miterlimit="10.433"
           font-style="normal"
           font-variant="normal"
           font-weight="normal"
           font-stretch="normal"
           font-size-adjust="none"
           letter-spacing="normal"
           word-spacing="normal"
           style="font-style:normal;font-variant:normal;font-weight:normal;font-stretch:normal;letter-spacing:normal;word-spacing:normal;text-anchor:start;fill:none;fill-opacity:1;fill-rule:evenodd;stroke:#000000;stroke-linecap:butt;stroke-linejoin:miter;stroke-miterlimit:10.43299961;stroke-dasharray:none;stroke-dashoffset:0;stroke-opacity:1"><path
             d="m 493.38,440.82 v 0.02 0.02 0.01 l -0.01,0.02 v 0.02 0.02 l -0.01,0.02 v 0.02 l -0.01,0.02 -0.01,0.02 -0.01,0.02 v 0.02 l -0.02,0.02 -0.01,0.02 -0.01,0.02 -0.01,0.02 -0.02,0.02 -0.02,0.02 -0.02,0.02 -0.02,0.02 -0.02,0.01 -0.02,0.02 -0.03,0.01 -0.02,0.02 -0.03,0.01 -0.01,0.01 h -0.02 l -0.01,0.01 h -0.02 l -0.02,0.01 h -0.01 -0.02 l -0.02,0.01 h -0.02 -0.02 -0.02 -0.02 -0.02 -0.02 c -0.14,0 -0.2,-0.04 -0.75,-0.59 l -3.48,-3.84 c -0.44,0.7 -2.74,4.43 -8.27,4.43 -11.11,0 -22.33,-11.01 -22.33,-22.56 0,-8.23 5.89,-13.65 13.52,-13.65 4.33,0 8.11,1.98 10.75,4.28 4.64,4.09 5.48,8.62 5.48,8.76 0,0.5 -0.5,0.5 -0.59,0.5 -0.3,0 -0.55,-0.09 -0.66,-0.5 -0.43,-1.44 -1.59,-4.98 -5.03,-7.87 -3.43,-2.78 -6.58,-3.63 -9.15,-3.63 -4.49,0 -9.77,2.6 -9.77,10.36 0,2.85 1.05,10.91 6.02,16.74 3.04,3.54 7.73,6.03 12.15,6.03 5.1,0 8.03,-3.83 8.03,-9.61 0,-2 -0.15,-2.05 -0.15,-2.55 0,-0.5 0.54,-0.5 0.75,-0.5 0.64,0 0.64,0.11 0.89,1 z"
             id="path11310"
             inkscape:connector-curvature="0"
             style="fill:#000000;stroke-width:0" /></g></g><g
         transform="matrix(12.342565,0,0,-12.342565,254.1567,6497.1965)"
         id="g13987"><g
           style="font-style:normal;font-variant:normal;font-weight:normal;font-stretch:normal;letter-spacing:normal;word-spacing:normal;text-anchor:start;fill:none;fill-opacity:1;fill-rule:evenodd;stroke:#000000;stroke-linecap:butt;stroke-linejoin:miter;stroke-miterlimit:10.43299961;stroke-dasharray:none;stroke-dashoffset:0;stroke-opacity:1"
           word-spacing="normal"
           letter-spacing="normal"
           font-size-adjust="none"
           font-stretch="normal"
           font-weight="normal"
           font-variant="normal"
           font-style="normal"
           stroke-miterlimit="10.433"
           xml:space="preserve"
           transform="matrix(0.3,0,0,-0.3,-52.5,222.75)"
           id="g13985"><path
             style="fill:#000000;stroke-width:0"
             inkscape:connector-curvature="0"
             id="path13983"
             d="m 493.38,440.82 v 0.02 0.02 0.01 l -0.01,0.02 v 0.02 0.02 l -0.01,0.02 v 0.02 l -0.01,0.02 -0.01,0.02 -0.01,0.02 v 0.02 l -0.02,0.02 -0.01,0.02 -0.01,0.02 -0.01,0.02 -0.02,0.02 -0.02,0.02 -0.02,0.02 -0.02,0.02 -0.02,0.01 -0.02,0.02 -0.03,0.01 -0.02,0.02 -0.03,0.01 -0.01,0.01 h -0.02 l -0.01,0.01 h -0.02 l -0.02,0.01 h -0.01 -0.02 l -0.02,0.01 h -0.02 -0.02 -0.02 -0.02 -0.02 -0.02 c -0.14,0 -0.2,-0.04 -0.75,-0.59 l -3.48,-3.84 c -0.44,0.7 -2.74,4.43 -8.27,4.43 -11.11,0 -22.33,-11.01 -22.33,-22.56 0,-8.23 5.89,-13.65 13.52,-13.65 4.33,0 8.11,1.98 10.75,4.28 4.64,4.09 5.48,8.62 5.48,8.76 0,0.5 -0.5,0.5 -0.59,0.5 -0.3,0 -0.55,-0.09 -0.66,-0.5 -0.43,-1.44 -1.59,-4.98 -5.03,-7.87 -3.43,-2.78 -6.58,-3.63 -9.15,-3.63 -4.49,0 -9.77,2.6 -9.77,10.36 0,2.85 1.05,10.91 6.02,16.74 3.04,3.54 7.73,6.03 12.15,6.03 5.1,0 8.03,-3.83 8.03,-9.61 0,-2 -0.15,-2.05 -0.15,-2.55 0,-0.5 0.54,-0.5 0.75,-0.5 0.64,0 0.64,0.11 0.89,1 z" /></g></g></g></g></svg>